<?xml version="1.0" encoding="utf-8"?>
<!-- Generator: Adobe Illustrator 22.0.1, SVG Export Plug-In . SVG Version: 6.00 Build 0)  -->
<svg version="1.1" id="_x23_Layer_1" xmlns="http://www.w3.org/2000/svg" xmlns:xlink="http://www.w3.org/1999/xlink" x="0px"
	 y="0px" viewBox="0 0 82.1 63.4" style="enable-background:new 0 0 82.1 63.4;" xml:space="preserve">
<style type="text/css">
	.st0{fill:#FFFFFF;stroke:#FF7300;stroke-width:10;stroke-linecap:square;stroke-linejoin:bevel;stroke-miterlimit:10;}
	.st1{fill:#FFFFFF;}
</style>
<g>
	<path class="st0" d="M45.4,9.7c0.2,1.9,0.2,3.9,0,6c-0.2,2.1-0.7,4.2-1.3,6.2c-0.6,2-1.3,3.8-2.2,5.5c-0.9,1.7-1.8,3.1-2.7,4.1
		c0.1,5,0.9,8.9,2.2,11.7c1.4,2.8,3.3,4.5,5.9,4.8c0.6,0.1,1.3,0.1,2.1-0.1c0.7-0.1,1.4-0.4,2.1-0.7c0.7-0.3,1.2-0.7,1.7-1.1
		c0.5-0.5,0.9-1,1.1-1.5c0.8,1.6,1.1,3.2,1.1,4.8c-0.1,1.6-0.5,3-1.2,4.2c-0.8,1.2-1.8,2.3-3.1,3.1c-1.3,0.8-2.8,1.3-4.4,1.5
		c-1.5,0.2-2.9-0.1-4.1-1c-1.2-0.8-2.3-2-3.2-3.4S37.6,50.9,37,49c-0.6-1.9-1.2-3.7-1.6-5.6c-0.4-1.9-0.8-3.6-1-5.3S34,35.1,33.9,34
		c-0.9,0.7-1.8,1.3-2.7,1.8c-0.9,0.5-1.7,0.9-2.4,1.3c0,1.6,0,3.2,0,4.6c0,1.5,0.1,2.8,0.2,4c0.1,1.2,0.3,2.2,0.6,3
		c0.3,0.8,0.7,1.3,1.3,1.4c-0.1,1-0.4,1.9-1,2.8c-0.6,0.9-1.4,1.5-2.5,1.9c-1,0.4-1.9,0.4-2.8,0.2c-0.9-0.2-1.8-0.8-2.5-1.7
		c-0.5-0.8-0.9-1.7-1.1-2.6s-0.3-1.9-0.3-3s0-2.3,0.1-3.6c0.1-1.3,0.2-2.8,0.3-4.5c-1.5,0.8-2.9,1.6-4.2,2.5
		c-1.2,0.9-2.3,1.9-3.1,2.9c-0.8,1-1.4,2-1.7,3c-0.3,1-0.3,2,0.1,3c-0.8,0.1-1.6,0-2.3-0.2c-0.7-0.2-1.3-0.5-1.9-0.9
		C7.6,49.7,7.1,49,6.8,48c-0.3-0.7-0.4-1.5-0.3-2.3c0.1-0.8,0.3-1.6,0.7-2.4c0.4-0.8,1-1.6,1.7-2.3c0.7-0.7,1.7-1.4,2.8-1.9
		c1.5-0.7,3-1.3,4.6-1.8c1.6-0.5,3.4-1.1,5.6-2c0.1-0.6,0.1-1.7,0.2-3.5c0.1-1.7-0.1-3.6-0.4-5.7c-0.3-2.1-0.9-4.2-1.8-6.3
		c-0.9-2.1-2.2-3.9-4-5.4c-0.5-0.4-1.1-0.8-1.7-1c-0.6-0.3-1.2-0.4-1.8-0.4c-0.5,0-1,0-1.4,0.1c-0.4,0.1-0.6,0.2-0.7,0.4
		c-0.4,1.1-0.4,2,0.1,2.8c0.5,0.8,1.3,1.4,2.6,1.8c0.6,0.2,1.2,0.3,1.7,0.3s0.9,0,1.3,0c0.4,0,0.8-0.1,1.1-0.2
		c0.4,0.5,0.7,0.9,1,1.5c0.3,0.4,0.5,0.9,0.8,1.5c0.2,0.6,0.4,1.1,0.5,1.7c0.2,1.1,0,2.2-0.6,3.3c-0.6,1.1-1.3,1.8-2.2,2.1
		c-0.3,0.1-1-0.1-2.1-0.5c-1.2-0.4-2.4-1.1-3.7-2c-1.3-1-2.5-2.3-3.6-3.9c-1.1-1.6-1.7-3.6-1.9-5.9c-0.2-1.4,0-2.8,0.6-4.1
		C6.2,10.3,7,9.2,7.9,8.2c1-1,2.1-1.7,3.3-2.2s2.4-0.7,3.6-0.5c1.5,0.2,2.9,0.8,4.3,1.8c1.3,1,2.6,2.2,3.7,3.6
		c1.1,1.4,2.1,3,2.9,4.8c0.8,1.8,1.5,3.7,1.9,5.6c0.4,1.6,0.7,3.4,0.8,5.4c0.1,2,0.2,4,0.2,6.2c0.8-0.4,1.5-0.9,2.3-1.4
		c0.8-0.5,1.6-1.2,2.6-2c-0.2-5,0-9.4,0.5-13c0.5-3.7,1.2-6.3,2-7.9c0.2-0.4,0.5-0.9,0.9-1.4c0.4-0.5,0.8-0.9,1.3-1.2
		c0.5-0.3,1-0.6,1.5-0.8C40.5,5,41,5,41.5,5c0.9,0.2,1.7,0.7,2.5,1.4C44.7,7.3,45.2,8.4,45.4,9.7z M38.8,18.6
		c-0.1,1-0.1,1.8-0.1,2.5c0,0.7,0,1.4,0,1.8c0,0.6,0,1.1,0.1,1.6c0.2-0.5,0.4-1,0.7-1.5c0.4-1,0.8-2.3,1.1-4
		c0.2-0.9,0.3-1.8,0.5-2.7c0.1-0.9,0.2-1.7,0.2-2.3c0-0.6-0.1-1.1-0.3-1.4c-0.2-0.3-0.5-0.2-0.9,0.2c-0.2,0.1-0.4,0.6-0.6,1.4
		C39.1,15.1,39,16.5,38.8,18.6z"/>
	<path class="st0" d="M61.4,31.3c0.2,0.5,0.3,1.3,0.4,2.3c0.1,1,0,2.1-0.2,3.3c-0.1,0.6-0.3,1.4-0.6,2.1c-0.3,0.8-0.7,1.5-1.2,2.3
		c-0.5,0.8-1.1,1.4-1.8,2c-0.7,0.6-1.5,1-2.4,1.2c-1.7,0.4-3.3,0.3-4.7-0.5s-2.6-2-3.4-3.6c-0.6-1.2-1-2.6-1.2-4
		c-0.1-1.5,0-2.9,0.3-4.4c0.4-1.4,0.9-2.7,1.7-3.9c0.8-1.2,1.8-2,3-2.7c0.4-0.2,0.9-0.3,1.5-0.4s1.2-0.1,1.9-0.1
		c0.7,0.1,1.4,0.2,2,0.5c0.7,0.3,1.3,0.7,1.9,1.3c0.5,0.5,0.8,1,1.1,1.6c0.2,0.6,0.3,1.1,0.2,1.6c0.3,0.1,0.6,0.3,0.9,0.6
		C61,30.7,61.2,31,61.4,31.3z M57.2,36.5c0.2-0.8,0.2-1.6,0-2.6c-0.1-0.9-0.5-1.6-1.1-2c-0.1-0.1,0-0.3,0.1-0.5
		c0.1-0.3,0.4-0.6,0.8-0.9c-0.3-0.2-0.7-0.3-1-0.5c-0.3-0.2-0.7-0.3-1.1-0.4c-0.2,0-0.4,0-0.8,0.1c-0.3,0-0.7,0.2-1,0.4
		c-0.4,0.3-0.7,0.6-1,1.2c-0.3,0.5-0.6,1.2-0.8,2.1c-0.1,0.3-0.1,0.8-0.1,1.5c0,0.7,0.1,1.4,0.3,2.1s0.6,1.3,1.1,1.8
		c0.5,0.5,1.2,0.7,2.1,0.7c0.5,0,1-0.3,1.5-0.9C56.7,38,57.1,37.3,57.2,36.5z"/>
	<path class="st0" d="M73.6,10.1c0.5,0.4,0.8,0.7,1.1,1.2c0.2,0.4,0.3,0.9,0.4,1.5c0.1,0.6-0.1,1.3-0.4,2c-0.2,0.4-0.5,0.8-1,1.1
		c-0.4,0.3-0.8,0.5-1.3,0.7c-0.5,0.2-0.9,0.3-1.4,0.3c-0.5,0-0.9,0-1.2,0c0,1.1-0.1,2.3-0.1,3.7c0,1.4,0,2.8-0.1,4.2
		c0,1.4,0,2.7,0,4c0,1.2,0.1,2.3,0.2,3c0.2,1.5,0.6,2.4,1.2,2.9c0.6,0.4,1,0.6,1.4,0.5c0.6-0.2,1-0.7,1.2-1.7
		c0.2-0.9,0.4-1.9,0.4-2.9c0.1-1,0.1-1.9,0.1-2.8c0-0.8,0-1.2,0.1-1.2c0.1,0,0.3,0.1,0.6,0.1c0.3,0.1,0.7,0.3,1,0.8s0.7,1.1,0.9,2.1
		c0.2,1,0.3,2.3,0.2,4.1c-0.1,1.3-0.4,2.5-0.9,3.5c-0.5,1-1.1,1.8-1.8,2.5c-0.7,0.7-1.5,1.1-2.3,1.4c-0.8,0.3-1.6,0.4-2.3,0.3
		c-0.5,0-1-0.2-1.6-0.4c-0.6-0.2-1.1-0.7-1.7-1.5c-0.5-0.8-1-1.9-1.4-3.4c-0.4-1.5-0.7-3.5-0.7-6.1c0-2.4,0-4.8,0.1-7.1
		c0-2.3,0.1-4.4,0-6.3c-1.2,0-2.1,0.1-2.7,0.2c-0.6,0.1-0.9,0.6-1,1.2c-0.8-0.4-1.4-1-1.7-1.8c-0.3-0.8,0-1.7,0.7-2.6
		c0.2-0.2,0.4-0.4,0.6-0.6c0.2-0.2,0.4-0.3,0.8-0.4s0.7-0.1,1.2-0.1c0.5,0,1.1,0,1.8,0c-0.2-1-0.4-1.8-0.8-2.5S62.6,9.2,62,9
		c0-0.2,0.1-0.5,0.3-0.8s0.5-0.7,0.8-1.1c0.3-0.4,0.7-0.7,1.1-1c0.4-0.3,0.9-0.5,1.4-0.5c0.5-0.1,1,0,1.5,0.2
		C67.6,6,68,6.3,68.4,6.9c0.4,0.5,0.7,1.3,1,2.3c0.3,1,0.5,2.2,0.6,3.6c0.6,0,1.2-0.2,1.9-0.4C72.5,12.1,73.1,11.3,73.6,10.1z"/>
</g>
<g>
	<path class="st1" d="M45.4,9.7c0.2,1.9,0.2,3.9,0,6c-0.2,2.1-0.7,4.2-1.3,6.2c-0.6,2-1.3,3.8-2.2,5.5c-0.9,1.7-1.8,3.1-2.7,4.1
		c0.1,5,0.9,8.9,2.2,11.7c1.4,2.8,3.3,4.5,5.9,4.8c0.6,0.1,1.3,0.1,2.1-0.1c0.7-0.1,1.4-0.4,2.1-0.7c0.7-0.3,1.2-0.7,1.7-1.1
		c0.5-0.5,0.9-1,1.1-1.5c0.8,1.6,1.1,3.2,1.1,4.8c-0.1,1.6-0.5,3-1.2,4.2c-0.8,1.2-1.8,2.3-3.1,3.1c-1.3,0.8-2.8,1.3-4.4,1.5
		c-1.5,0.2-2.9-0.1-4.1-1c-1.2-0.8-2.3-2-3.2-3.4S37.6,50.9,37,49c-0.6-1.9-1.2-3.7-1.6-5.6c-0.4-1.9-0.8-3.6-1-5.3S34,35.1,33.9,34
		c-0.9,0.7-1.8,1.3-2.7,1.8c-0.9,0.5-1.7,0.9-2.4,1.3c0,1.6,0,3.2,0,4.6c0,1.5,0.1,2.8,0.2,4c0.1,1.2,0.3,2.2,0.6,3
		c0.3,0.8,0.7,1.3,1.3,1.4c-0.1,1-0.4,1.9-1,2.8c-0.6,0.9-1.4,1.5-2.5,1.9c-1,0.4-1.9,0.4-2.8,0.2c-0.9-0.2-1.8-0.8-2.5-1.7
		c-0.5-0.8-0.9-1.7-1.1-2.6s-0.3-1.9-0.3-3s0-2.3,0.1-3.6c0.1-1.3,0.2-2.8,0.3-4.5c-1.5,0.8-2.9,1.6-4.2,2.5
		c-1.2,0.9-2.3,1.9-3.1,2.9c-0.8,1-1.4,2-1.7,3c-0.3,1-0.3,2,0.1,3c-0.8,0.1-1.6,0-2.3-0.2c-0.7-0.2-1.3-0.5-1.9-0.9
		C7.6,49.7,7.1,49,6.8,48c-0.3-0.7-0.4-1.5-0.3-2.3c0.1-0.8,0.3-1.6,0.7-2.4c0.4-0.8,1-1.6,1.7-2.3c0.7-0.7,1.7-1.4,2.8-1.9
		c1.5-0.7,3-1.3,4.6-1.8c1.6-0.5,3.4-1.1,5.6-2c0.1-0.6,0.1-1.7,0.2-3.5c0.1-1.7-0.1-3.6-0.4-5.7c-0.3-2.1-0.9-4.2-1.8-6.3
		c-0.9-2.1-2.2-3.9-4-5.4c-0.5-0.4-1.1-0.8-1.7-1c-0.6-0.3-1.2-0.4-1.8-0.4c-0.5,0-1,0-1.4,0.1c-0.4,0.1-0.6,0.2-0.7,0.4
		c-0.4,1.1-0.4,2,0.1,2.8c0.5,0.8,1.3,1.4,2.6,1.8c0.6,0.2,1.2,0.3,1.7,0.3s0.9,0,1.3,0c0.4,0,0.8-0.1,1.1-0.2
		c0.4,0.5,0.7,0.9,1,1.5c0.3,0.4,0.5,0.9,0.8,1.5c0.2,0.6,0.4,1.1,0.5,1.7c0.2,1.1,0,2.2-0.6,3.3c-0.6,1.1-1.3,1.8-2.2,2.1
		c-0.3,0.1-1-0.1-2.1-0.5c-1.2-0.4-2.4-1.1-3.7-2c-1.3-1-2.5-2.3-3.6-3.9c-1.1-1.6-1.7-3.6-1.9-5.9c-0.2-1.4,0-2.8,0.6-4.1
		C6.2,10.3,7,9.2,7.9,8.2c1-1,2.1-1.7,3.3-2.2s2.4-0.7,3.6-0.5c1.5,0.2,2.9,0.8,4.3,1.8c1.3,1,2.6,2.2,3.7,3.6
		c1.1,1.4,2.1,3,2.9,4.8c0.8,1.8,1.5,3.7,1.9,5.6c0.4,1.6,0.7,3.4,0.8,5.4c0.1,2,0.2,4,0.2,6.2c0.8-0.4,1.5-0.9,2.3-1.4
		c0.8-0.5,1.6-1.2,2.6-2c-0.2-5,0-9.4,0.5-13c0.5-3.7,1.2-6.3,2-7.9c0.2-0.4,0.5-0.9,0.9-1.4c0.4-0.5,0.8-0.9,1.3-1.2
		c0.5-0.3,1-0.6,1.5-0.8C40.5,5,41,5,41.5,5c0.9,0.2,1.7,0.7,2.5,1.4C44.7,7.3,45.2,8.4,45.4,9.7z M38.8,18.6
		c-0.1,1-0.1,1.8-0.1,2.5c0,0.7,0,1.4,0,1.8c0,0.6,0,1.1,0.1,1.6c0.2-0.5,0.4-1,0.7-1.5c0.4-1,0.8-2.3,1.1-4
		c0.2-0.9,0.3-1.8,0.5-2.7c0.1-0.9,0.2-1.7,0.2-2.3c0-0.6-0.1-1.1-0.3-1.4c-0.2-0.3-0.5-0.2-0.9,0.2c-0.2,0.1-0.4,0.6-0.6,1.4
		C39.1,15.1,39,16.5,38.8,18.6z"/>
	<path class="st1" d="M61.4,31.3c0.2,0.5,0.3,1.3,0.4,2.3c0.1,1,0,2.1-0.2,3.3c-0.1,0.6-0.3,1.4-0.6,2.1c-0.3,0.8-0.7,1.5-1.2,2.3
		c-0.5,0.8-1.1,1.4-1.8,2c-0.7,0.6-1.5,1-2.4,1.2c-1.7,0.4-3.3,0.3-4.7-0.5s-2.6-2-3.4-3.6c-0.6-1.2-1-2.6-1.2-4
		c-0.1-1.5,0-2.9,0.3-4.4c0.4-1.4,0.9-2.7,1.7-3.9c0.8-1.2,1.8-2,3-2.7c0.4-0.2,0.9-0.3,1.5-0.4s1.2-0.1,1.9-0.1
		c0.7,0.1,1.4,0.2,2,0.5c0.7,0.3,1.3,0.7,1.9,1.3c0.5,0.5,0.8,1,1.1,1.6c0.2,0.6,0.3,1.1,0.2,1.6c0.3,0.1,0.6,0.3,0.9,0.6
		C61,30.7,61.2,31,61.4,31.3z M57.2,36.5c0.2-0.8,0.2-1.6,0-2.6c-0.1-0.9-0.5-1.6-1.1-2c-0.1-0.1,0-0.3,0.1-0.5
		c0.1-0.3,0.4-0.6,0.8-0.9c-0.3-0.2-0.7-0.3-1-0.5c-0.3-0.2-0.7-0.3-1.1-0.4c-0.2,0-0.4,0-0.8,0.1c-0.3,0-0.7,0.2-1,0.4
		c-0.4,0.3-0.7,0.6-1,1.2c-0.3,0.5-0.6,1.2-0.8,2.1c-0.1,0.3-0.1,0.8-0.1,1.5c0,0.7,0.1,1.4,0.3,2.1s0.6,1.3,1.1,1.8
		c0.5,0.5,1.2,0.7,2.1,0.7c0.5,0,1-0.3,1.5-0.9C56.7,38,57.1,37.3,57.2,36.5z"/>
	<path class="st1" d="M73.6,10.1c0.5,0.4,0.8,0.7,1.1,1.2c0.2,0.4,0.3,0.9,0.4,1.5c0.1,0.6-0.1,1.3-0.4,2c-0.2,0.4-0.5,0.8-1,1.1
		c-0.4,0.3-0.8,0.5-1.3,0.7c-0.5,0.2-0.9,0.3-1.4,0.3c-0.5,0-0.9,0-1.2,0c0,1.1-0.1,2.3-0.1,3.7c0,1.4,0,2.8-0.1,4.2
		c0,1.4,0,2.7,0,4c0,1.2,0.1,2.3,0.2,3c0.2,1.5,0.6,2.4,1.2,2.9c0.6,0.4,1,0.6,1.4,0.5c0.6-0.2,1-0.7,1.2-1.7
		c0.2-0.9,0.4-1.9,0.4-2.9c0.1-1,0.1-1.9,0.1-2.8c0-0.8,0-1.2,0.1-1.2c0.1,0,0.3,0.1,0.6,0.1c0.3,0.1,0.7,0.3,1,0.8s0.7,1.1,0.9,2.1
		c0.2,1,0.3,2.3,0.2,4.1c-0.1,1.3-0.4,2.5-0.9,3.5c-0.5,1-1.1,1.8-1.8,2.5c-0.7,0.7-1.5,1.1-2.3,1.4c-0.8,0.3-1.6,0.4-2.3,0.3
		c-0.5,0-1-0.2-1.6-0.4c-0.6-0.2-1.1-0.7-1.7-1.5c-0.5-0.8-1-1.9-1.4-3.4c-0.4-1.5-0.7-3.5-0.7-6.1c0-2.4,0-4.8,0.1-7.1
		c0-2.3,0.1-4.4,0-6.3c-1.2,0-2.1,0.1-2.7,0.2c-0.6,0.1-0.9,0.6-1,1.2c-0.8-0.4-1.4-1-1.7-1.8c-0.3-0.8,0-1.7,0.7-2.6
		c0.2-0.2,0.4-0.4,0.6-0.6c0.2-0.2,0.4-0.3,0.8-0.4s0.7-0.1,1.2-0.1c0.5,0,1.1,0,1.8,0c-0.2-1-0.4-1.8-0.8-2.5S62.6,9.2,62,9
		c0-0.2,0.1-0.5,0.3-0.8s0.5-0.7,0.8-1.1c0.3-0.4,0.7-0.7,1.1-1c0.4-0.3,0.9-0.5,1.4-0.5c0.5-0.1,1,0,1.5,0.2
		C67.6,6,68,6.3,68.4,6.9c0.4,0.5,0.7,1.3,1,2.3c0.3,1,0.5,2.2,0.6,3.6c0.6,0,1.2-0.2,1.9-0.4C72.5,12.1,73.1,11.3,73.6,10.1z"/>
</g>
</svg>
