<?xml version="1.0" encoding="utf-8"?>
<!-- Generator: Adobe Illustrator 16.0.0, SVG Export Plug-In . SVG Version: 6.00 Build 0)  -->
<!DOCTYPE svg PUBLIC "-//W3C//DTD SVG 1.1//EN" "http://www.w3.org/Graphics/SVG/1.1/DTD/svg11.dtd">
<svg version="1.1" id="Layer_1" xmlns="http://www.w3.org/2000/svg" xmlns:xlink="http://www.w3.org/1999/xlink" x="0px" y="0px"
	 width="408.872px" height="145.616px" viewBox="0 0 408.872 145.616" enable-background="new 0 0 408.872 145.616"
	 xml:space="preserve">
<g>
	<defs>
		<rect id="SVGID_1_" width="408.872" height="145.616"/>
	</defs>
	<clipPath id="SVGID_2_">
		<use xlink:href="#SVGID_1_"  overflow="visible"/>
	</clipPath>
	<path clip-path="url(#SVGID_2_)" fill-rule="evenodd" clip-rule="evenodd" fill="#F3764A" d="M131.504,0L59.211,90.367
		L15.313,49.703L0,66.238l52.784,48.895c4.802,4.445,12.367,3.88,16.457-1.23l79.861-99.824L131.504,0z"/>
</g>
<g>
	<path fill="#FFFFFF" d="M159.458,40.991h13.279l-22.764,64.07h-10.468l-22.764-64.07h13.7l14.403,43.013L159.458,40.991z"/>
	<path fill="#FFFFFF" d="M175.616,105.061v-64.07h35.69v12.958h-22.833v12.058h21.358v12.958h-21.358v13.138h22.833v12.958H175.616z
		"/>
	<path fill="#FFFFFF" d="M261.541,105.061H247.56l-6.464-21.326c-0.75-2.399-2.506-3.6-5.27-3.6h-4.777v24.926h-12.998v-64.07
		h23.256c6.042,0,10.585,1.665,13.63,4.994c3.044,3.33,4.567,8.084,4.567,14.263c0,4.319-0.902,8.054-2.705,11.203
		c-1.804,3.15-4.346,5.385-7.623,6.705c1.405,0.359,2.67,1.2,3.794,2.52c1.124,1.32,2.013,3.09,2.67,5.309L261.541,105.061z
		 M245.312,65.872c1.265-1.109,1.896-2.834,1.896-5.174c0-2.459-0.621-4.229-1.861-5.31c-1.242-1.08-3.291-1.62-6.147-1.62h-8.291
		v13.768h8.291C242.009,67.537,244.047,66.982,245.312,65.872z"/>
	<path fill="#FFFFFF" d="M268.215,105.061v-64.07h13.209v64.07H268.215z"/>
	<path fill="#FFFFFF" d="M290.416,105.061v-64.07h34.919v13.228h-21.921v11.698h20.516v13.138h-20.516v26.006H290.416z"/>
	<path fill="#FFFFFF" d="M378.802,40.991l-21.148,39.593v24.477h-13.278V80.494l-21.007-39.503h14.895l12.646,25.556l12.857-25.556
		H378.802z"/>
</g>
<g>
	<defs>
		<rect id="SVGID_3_" width="408.872" height="145.616"/>
	</defs>
	<clipPath id="SVGID_4_">
		<use xlink:href="#SVGID_3_"  overflow="visible"/>
	</clipPath>
	
		<polygon clip-path="url(#SVGID_4_)" fill="none" stroke="#F3764A" stroke-width="30" stroke-linejoin="round" stroke-miterlimit="10" points="
		144.844,84.004 130.441,40.99 116.74,40.99 139.504,105.061 149.973,105.061 172.737,40.99 159.458,40.99 	"/>
	
		<polygon clip-path="url(#SVGID_4_)" fill="none" stroke="#F3764A" stroke-width="30" stroke-linejoin="round" stroke-miterlimit="10" points="
		211.308,105.061 211.308,92.103 188.474,92.103 188.474,78.965 209.832,78.965 209.832,66.006 188.474,66.006 188.474,53.949 
		211.308,53.949 211.308,40.991 175.617,40.991 175.617,105.061 	"/>
	
		<path clip-path="url(#SVGID_4_)" fill="none" stroke="#F3764A" stroke-width="30" stroke-linejoin="round" stroke-miterlimit="10" d="
		M239.199,67.537h-8.291V53.769h8.291c2.856,0,4.905,0.54,6.147,1.62c1.24,1.079,1.861,2.85,1.861,5.309
		c0,2.34-0.632,4.065-1.896,5.175C244.047,66.982,242.01,67.537,239.199,67.537z M255.64,85.983
		c-0.657-2.219-1.546-3.988-2.67-5.309c-1.124-1.319-2.389-2.16-3.794-2.521c3.276-1.318,5.818-3.554,7.623-6.703
		c1.803-3.15,2.705-6.884,2.705-11.203c0-6.179-1.523-10.934-4.567-14.264c-3.045-3.329-7.588-4.994-13.63-4.994h-23.256v64.07
		h12.998V80.135h4.777c2.764,0,4.52,1.2,5.27,3.6l6.464,21.326h13.981L255.64,85.983z"/>
	
		<rect x="268.215" y="40.99" clip-path="url(#SVGID_4_)" fill="none" stroke="#F3764A" stroke-width="30" stroke-linejoin="round" stroke-miterlimit="10" width="13.209" height="64.07"/>
	
		<polygon clip-path="url(#SVGID_4_)" fill="none" stroke="#F3764A" stroke-width="30" stroke-linejoin="round" stroke-miterlimit="10" points="
		303.414,105.061 303.414,79.055 323.93,79.055 323.93,65.917 303.414,65.917 303.414,54.219 325.335,54.219 325.335,40.991 
		290.416,40.991 290.416,105.061 	"/>
	
		<polygon clip-path="url(#SVGID_4_)" fill="none" stroke="#F3764A" stroke-width="30" stroke-linejoin="round" stroke-miterlimit="10" points="
		363.837,40.99 350.979,66.547 338.333,40.99 323.438,40.99 344.445,80.494 344.445,105.061 357.725,105.061 357.725,80.584 
		378.872,40.99 	"/>
</g>
<g>
	<path fill="#FFFFFF" d="M158.458,40.991h13.279l-22.764,64.07h-10.468l-22.764-64.07h13.7l14.403,43.013L158.458,40.991z"/>
	<path fill="#FFFFFF" d="M174.616,105.061v-64.07h35.69v12.958h-22.833v12.058h21.358v12.958h-21.358v13.138h22.833v12.958H174.616z
		"/>
	<path fill="#FFFFFF" d="M260.541,105.061H246.56l-6.464-21.326c-0.75-2.399-2.506-3.6-5.27-3.6h-4.777v24.926h-12.998v-64.07
		h23.256c6.042,0,10.585,1.665,13.63,4.994c3.044,3.33,4.567,8.084,4.567,14.263c0,4.319-0.902,8.054-2.705,11.203
		c-1.804,3.15-4.346,5.385-7.623,6.705c1.405,0.359,2.67,1.2,3.794,2.52c1.124,1.32,2.013,3.09,2.67,5.309L260.541,105.061z
		 M244.312,65.872c1.265-1.109,1.896-2.834,1.896-5.174c0-2.459-0.621-4.229-1.861-5.31c-1.242-1.08-3.291-1.62-6.147-1.62h-8.291
		v13.768h8.291C241.009,67.537,243.047,66.982,244.312,65.872z"/>
	<path fill="#FFFFFF" d="M267.215,105.061v-64.07h13.209v64.07H267.215z"/>
	<path fill="#FFFFFF" d="M289.416,105.061v-64.07h34.919v13.228h-21.921v11.698h20.516v13.138h-20.516v26.006H289.416z"/>
	<path fill="#FFFFFF" d="M377.802,40.991l-21.148,39.593v24.477h-13.278V80.494l-21.007-39.503h14.895l12.646,25.556l12.857-25.556
		H377.802z"/>
</g>
</svg>
