<?xml version="1.0" encoding="utf-8"?>
<!-- Generator: Adobe Illustrator 16.0.0, SVG Export Plug-In . SVG Version: 6.00 Build 0)  -->
<!DOCTYPE svg PUBLIC "-//W3C//DTD SVG 1.1//EN" "http://www.w3.org/Graphics/SVG/1.1/DTD/svg11.dtd">
<svg version="1.1" id="Layer_1" xmlns="http://www.w3.org/2000/svg" xmlns:xlink="http://www.w3.org/1999/xlink" x="0px" y="0px"
	 width="358.349px" height="135.435px" viewBox="0 0 358.349 135.435" enable-background="new 0 0 358.349 135.435"
	 xml:space="preserve">
<g>
	<defs>
		<rect id="SVGID_1_" width="358.349" height="135.435"/>
	</defs>
	<clipPath id="SVGID_2_">
		<use xlink:href="#SVGID_1_"  overflow="visible"/>
	</clipPath>
	<g clip-path="url(#SVGID_2_)">
		<path fill="#FFFFFF" d="M134.719,93.799c-3.653-1.26-6.628-2.97-8.923-5.129l4.145-11.968c2.435,1.979,5.023,3.495,7.764,4.544
			c2.74,1.05,5.491,1.575,8.255,1.575c2.811,0,4.964-0.495,6.464-1.485c1.499-0.989,2.248-2.385,2.248-4.185
			c0-1.619-0.679-2.954-2.038-4.004c-1.359-1.049-3.911-2.084-7.658-3.104c-4.731-1.2-8.408-2.684-11.031-4.455
			c-2.624-1.769-4.461-3.854-5.515-6.254c-1.054-2.398-1.581-5.309-1.581-8.729c0-3.899,0.866-7.424,2.6-10.573
			c1.732-3.15,4.168-5.609,7.307-7.379c3.137-1.769,6.72-2.655,10.75-2.655c3.606,0,7.107,0.646,10.503,1.935
			c3.396,1.291,6.053,2.985,7.974,5.084l-4.075,11.968c-2.202-1.98-4.521-3.494-6.956-4.544c-2.436-1.049-4.872-1.575-7.307-1.575
			c-2.389,0-4.31,0.585-5.761,1.755c-1.452,1.169-2.178,2.744-2.178,4.724c0,1.08,0.257,1.979,0.773,2.7
			c0.515,0.72,1.475,1.425,2.88,2.114c1.405,0.69,3.513,1.426,6.323,2.205c4.542,1.26,8.115,2.776,10.714,4.544
			c2.6,1.771,4.438,3.84,5.515,6.209c1.077,2.371,1.616,5.205,1.616,8.504c0,6.24-1.897,11.145-5.691,14.713
			c-3.794,3.569-9.134,5.354-16.019,5.354C142.072,95.689,138.372,95.059,134.719,93.799z"/>
		<path fill="#FFFFFF" d="M208.068,30.81h12.928v64.07h-12.928V68.963h-20.234v25.916h-12.928V30.81h12.928v24.926h20.234V30.81z"/>
		<path fill="#FFFFFF" d="M240.457,91.685c-3.794-2.669-6.71-6.493-8.747-11.474c-2.037-4.979-3.057-10.798-3.057-17.457
			c0-6.659,1.03-12.447,3.092-17.367c2.061-4.918,4.977-8.713,8.747-11.383C244.262,31.335,248.7,30,253.807,30
			c5.104,0,9.543,1.336,13.313,4.004c3.77,2.67,6.662,6.465,8.677,11.383c2.014,4.92,3.021,10.708,3.021,17.367
			c0,6.659-1.008,12.479-3.021,17.457c-2.015,4.98-4.907,8.805-8.677,11.474c-3.771,2.67-8.209,4.004-13.313,4.004
			C248.7,95.689,244.251,94.355,240.457,91.685z M262.624,77.692c2.131-3.419,3.196-8.398,3.196-14.938
			c0-6.479-1.065-11.413-3.196-14.803c-2.132-3.388-5.071-5.084-8.817-5.084c-3.748,0-6.675,1.68-8.782,5.039
			c-2.108,3.36-3.162,8.31-3.162,14.848c0,6.6,1.054,11.594,3.162,14.982c2.107,3.391,5.034,5.085,8.782,5.085
			C257.553,82.822,260.492,81.112,262.624,77.692z"/>
		<path fill="#FFFFFF" d="M286.545,30.81h23.818c5.714,0,10.14,1.755,13.278,5.264c3.138,3.509,4.707,8.265,4.707,14.263
			c0,5.939-1.593,10.679-4.777,14.218c-3.186,3.541-7.588,5.31-13.208,5.31h-10.609v25.016h-13.209V30.81z M308.606,57.265
			c4.964,0,7.447-2.25,7.447-6.749c0-2.279-0.597-4.004-1.791-5.174c-1.195-1.17-3.081-1.755-5.656-1.755h-8.853v13.678H308.606z"/>
	</g>
	
		<path clip-path="url(#SVGID_2_)" fill="none" stroke="#6BB8F1" stroke-width="30" stroke-linejoin="round" stroke-miterlimit="10" d="
		M145.819,95.689c6.886,0,12.225-1.784,16.019-5.354c3.793-3.567,5.691-8.472,5.691-14.712c0-3.299-0.539-6.133-1.616-8.503
		c-1.078-2.369-2.915-4.439-5.515-6.209c-2.6-1.769-6.172-3.284-10.715-4.544c-2.81-0.78-4.918-1.515-6.323-2.205
		c-1.405-0.689-2.365-1.395-2.881-2.115c-0.515-0.719-0.772-1.62-0.772-2.7c0-1.979,0.725-3.553,2.177-4.723
		s3.373-1.755,5.762-1.755c2.435,0,4.87,0.525,7.307,1.574c2.434,1.051,4.753,2.565,6.955,4.545l4.075-11.969
		c-1.921-2.099-4.579-3.793-7.975-5.084C154.612,30.645,151.112,30,147.506,30c-4.03,0-7.613,0.885-10.75,2.654
		c-3.139,1.77-5.575,4.229-7.307,7.379c-1.734,3.149-2.6,6.675-2.6,10.573c0,3.42,0.528,6.33,1.581,8.729
		c1.054,2.4,2.892,4.485,5.516,6.254c2.622,1.77,6.299,3.255,11.03,4.454c3.746,1.021,6.299,2.057,7.658,3.105
		c1.358,1.05,2.038,2.385,2.038,4.004c0,1.8-0.75,3.194-2.249,4.185c-1.5,0.99-3.653,1.485-6.463,1.485
		c-2.765,0-5.516-0.525-8.255-1.575c-2.74-1.049-5.329-2.564-7.764-4.544l-4.145,11.968c2.294,2.159,5.269,3.869,8.922,5.129
		C138.372,95.059,142.071,95.689,145.819,95.689z"/>
	
		<polygon clip-path="url(#SVGID_2_)" fill="none" stroke="#6BB8F1" stroke-width="30" stroke-linejoin="round" stroke-miterlimit="10" points="
		208.067,55.736 187.833,55.736 187.833,30.809 174.905,30.809 174.905,94.879 187.833,94.879 187.833,68.963 208.067,68.963 
		208.067,94.879 220.995,94.879 220.995,30.809 208.067,30.809 	"/>
	
		<path clip-path="url(#SVGID_2_)" fill="none" stroke="#6BB8F1" stroke-width="30" stroke-linejoin="round" stroke-miterlimit="10" d="
		M253.807,82.822c-3.748,0-6.675-1.694-8.782-5.085c-2.108-3.389-3.162-8.383-3.162-14.983c0-6.538,1.054-11.487,3.162-14.847
		c2.107-3.36,5.034-5.039,8.782-5.039c3.746,0,6.686,1.695,8.817,5.084c2.131,3.389,3.196,8.324,3.196,14.802
		c0,6.539-1.065,11.519-3.196,14.938C260.492,81.112,257.553,82.822,253.807,82.822z M253.807,95.689
		c5.104,0,9.543-1.334,13.313-4.004c3.771-2.669,6.663-6.493,8.678-11.474c2.014-4.979,3.021-10.798,3.021-17.458
		c0-6.659-1.008-12.447-3.021-17.367c-2.015-4.918-4.907-8.713-8.678-11.383C263.35,31.335,258.91,30,253.807,30
		c-5.106,0-9.545,1.335-13.314,4.004c-3.771,2.67-6.687,6.465-8.748,11.383c-2.061,4.92-3.09,10.708-3.09,17.367
		c0,6.66,1.019,12.479,3.056,17.458c2.036,4.98,4.952,8.805,8.747,11.474C244.251,94.355,248.7,95.689,253.807,95.689z"/>
	
		<path clip-path="url(#SVGID_2_)" fill="none" stroke="#6BB8F1" stroke-width="30" stroke-linejoin="round" stroke-miterlimit="10" d="
		M299.754,57.265V43.587h8.853c2.575,0,4.46,0.585,5.656,1.755c1.194,1.17,1.791,2.894,1.791,5.174c0,4.5-2.483,6.749-7.447,6.749
		H299.754z M286.545,94.879h13.209V69.864h10.609c5.619,0,10.022-1.77,13.208-5.31c3.185-3.539,4.777-8.279,4.777-14.218
		c0-5.998-1.569-10.753-4.707-14.263c-3.139-3.509-7.564-5.264-13.278-5.264h-23.818V94.879z"/>
	<g clip-path="url(#SVGID_2_)">
		<path fill="#FFFFFF" d="M134.719,93.799c-3.653-1.26-6.628-2.97-8.923-5.129l4.145-11.968c2.435,1.979,5.023,3.495,7.764,4.544
			c2.74,1.05,5.491,1.575,8.255,1.575c2.811,0,4.964-0.495,6.464-1.485c1.499-0.989,2.248-2.385,2.248-4.185
			c0-1.619-0.679-2.954-2.038-4.004c-1.359-1.049-3.911-2.084-7.658-3.104c-4.731-1.2-8.408-2.684-11.031-4.455
			c-2.624-1.769-4.461-3.854-5.515-6.254c-1.054-2.398-1.581-5.309-1.581-8.729c0-3.899,0.866-7.424,2.6-10.573
			c1.732-3.15,4.168-5.609,7.307-7.379c3.137-1.769,6.72-2.655,10.75-2.655c3.606,0,7.107,0.646,10.503,1.935
			c3.396,1.291,6.053,2.985,7.974,5.084l-4.075,11.968c-2.202-1.98-4.521-3.494-6.956-4.544c-2.436-1.049-4.872-1.575-7.307-1.575
			c-2.389,0-4.31,0.585-5.761,1.755c-1.452,1.169-2.178,2.744-2.178,4.724c0,1.08,0.257,1.979,0.773,2.7
			c0.515,0.72,1.475,1.425,2.88,2.114c1.405,0.69,3.513,1.426,6.323,2.205c4.542,1.26,8.115,2.776,10.714,4.544
			c2.6,1.771,4.438,3.84,5.515,6.209c1.077,2.371,1.616,5.205,1.616,8.504c0,6.24-1.897,11.145-5.691,14.713
			c-3.794,3.569-9.134,5.354-16.019,5.354C142.072,95.689,138.372,95.059,134.719,93.799z"/>
		<path fill="#FFFFFF" d="M208.068,30.81h12.928v64.07h-12.928V68.963h-20.234v25.916h-12.928V30.81h12.928v24.926h20.234V30.81z"/>
		<path fill="#FFFFFF" d="M240.457,91.685c-3.794-2.669-6.71-6.493-8.747-11.474c-2.037-4.979-3.057-10.798-3.057-17.457
			c0-6.659,1.03-12.447,3.092-17.367c2.061-4.918,4.977-8.713,8.747-11.383C244.262,31.335,248.7,30,253.807,30
			c5.104,0,9.543,1.336,13.313,4.004c3.77,2.67,6.662,6.465,8.677,11.383c2.014,4.92,3.021,10.708,3.021,17.367
			c0,6.659-1.008,12.479-3.021,17.457c-2.015,4.98-4.907,8.805-8.677,11.474c-3.771,2.67-8.209,4.004-13.313,4.004
			C248.7,95.689,244.251,94.355,240.457,91.685z M262.624,77.692c2.131-3.419,3.196-8.398,3.196-14.938
			c0-6.479-1.065-11.413-3.196-14.803c-2.132-3.388-5.071-5.084-8.817-5.084c-3.748,0-6.675,1.68-8.782,5.039
			c-2.108,3.36-3.162,8.31-3.162,14.848c0,6.6,1.054,11.594,3.162,14.982c2.107,3.391,5.034,5.085,8.782,5.085
			C257.553,82.822,260.492,81.112,262.624,77.692z"/>
		<path fill="#FFFFFF" d="M286.545,30.81h23.818c5.714,0,10.14,1.755,13.278,5.264c3.138,3.509,4.707,8.265,4.707,14.263
			c0,5.939-1.593,10.679-4.777,14.218c-3.186,3.541-7.588,5.31-13.208,5.31h-10.609v25.016h-13.209V30.81z M308.606,57.265
			c4.964,0,7.447-2.25,7.447-6.749c0-2.279-0.597-4.004-1.791-5.174c-1.195-1.17-3.081-1.755-5.656-1.755h-8.853v13.678H308.606z"/>
	</g>
	<path clip-path="url(#SVGID_2_)" fill="#6BB8F1" d="M91.166,59.997c-0.755,0.104-1.511,0.155-2.3,0.155
		c-4.953,0-9.352-2.239-12.39-5.701c-3.022,3.462-7.421,5.701-12.391,5.701c-4.953,0-9.368-2.239-12.39-5.701
		c-3.022,3.462-7.421,5.701-12.391,5.701c-4.953,0-9.369-2.239-12.391-5.701c-3.022,3.462-7.421,5.701-12.391,5.701
		c-0.772,0-1.544-0.052-2.3-0.155C1.712,58.533-3.274,45.718,2.351,36.503l10.896-17.844c0.974-1.602,2.703-2.583,4.55-2.583h67.829
		c1.847,0,3.576,0.982,4.55,2.583l10.896,17.844C106.712,45.736,101.709,58.55,91.166,59.997z M91.955,65.475
		c0.94-0.121,1.847-0.345,2.753-0.62v33.897c0,3.049-2.401,5.512-5.373,5.512H14.12c-2.972,0-5.373-2.463-5.373-5.512V64.854
		c0.89,0.258,1.813,0.482,2.753,0.62c0.991,0.138,2.015,0.207,3.022,0.207c1.679,0,3.341-0.275,4.953-0.654v17.189h64.471V65.027
		c1.612,0.396,3.274,0.654,4.953,0.654C89.923,65.681,90.931,65.612,91.955,65.475z"/>
</g>
</svg>
