<?xml version="1.0" encoding="utf-8"?>
<!-- Generator: Adobe Illustrator 22.0.0, SVG Export Plug-In . SVG Version: 6.00 Build 0)  -->
<svg version="1.1" id="Layer_1" xmlns="http://www.w3.org/2000/svg" xmlns:xlink="http://www.w3.org/1999/xlink" x="0px" y="0px"
	 viewBox="0 0 687.4 657.7" style="enable-background:new 0 0 687.4 657.7;" xml:space="preserve">
<style type="text/css">
	.st0{fill:#F57A1A;stroke:#F57A1A;stroke-width:5;stroke-miterlimit:10;}
</style>
<g>
	<g>
		<g>
			<path class="st0" d="M437.6,655.2c-6.2,0-12.4-1.5-18-4.6l-67.6-37c-5.2-2.9-11.4-2.9-16.7,0l-67.6,37c-9,4.9-19.7,5.9-29.5,2.8
				c-9.7-3.2-17.8-10.3-22.2-19.5l-33-69.6c-2.5-5.4-7.6-9-13.5-9.8l-76.5-9.9c-10.1-1.3-19.4-6.8-25.4-15.1
				c-6-8.3-8.4-18.8-6.5-28.8l14.2-75.8c1.1-5.8-0.8-11.7-5.1-15.8l-56-53c-7.4-7-11.7-16.9-11.7-27.2c0-10.2,4.3-20.1,11.7-27.2
				l56-53c4.3-4.1,6.2-10,5.1-15.8l-14.2-75.8c-1.9-10.1,0.5-20.6,6.5-28.8c6-8.3,15.3-13.8,25.4-15.1l76.5-9.9
				c5.9-0.8,10.9-4.4,13.5-9.8l33-69.6c4.4-9.3,12.5-16.4,22.2-19.5c9.7-3.2,20.5-2.2,29.5,2.8l67.6,37c5.2,2.9,11.4,2.9,16.7,0
				l67.6-37c9-4.9,19.7-5.9,29.5-2.8c9.7,3.2,17.8,10.3,22.2,19.5l33,69.6c2.5,5.4,7.6,9,13.5,9.8l76.5,9.9
				c10.1,1.3,19.4,6.8,25.4,15.1s8.4,18.8,6.5,28.8L612,232.9c-1.1,5.8,0.8,11.7,5.1,15.8l56,53c7.4,7,11.7,16.9,11.7,27.2
				c0,10.2-4.3,20.1-11.7,27.2l-56,53c-4.3,4.1-6.2,10-5.1,15.8l14.2,75.8c1.9,10.1-0.5,20.6-6.5,28.8c-6,8.3-15.3,13.8-25.4,15.1
				l-76.5,9.9c-5.9,0.8-10.9,4.4-13.5,9.8l-33,69.6c-4.4,9.3-12.5,16.4-22.2,19.5C445.4,654.6,441.5,655.2,437.6,655.2z
				 M343.7,591.5c6.2,0,12.3,1.5,17.9,4.6l67.6,37c4.2,2.3,9.1,2.8,13.7,1.3c4.6-1.5,8.3-4.7,10.3-9.1l33-69.6
				c5.5-11.6,16.3-19.4,29-21.1l76.5-9.9c4.8-0.6,9-3.1,11.8-7c2.8-3.9,3.9-8.7,3-13.4l-14.2-75.8c-2.3-12.5,1.8-25.3,11.1-34l56-53
				l0,0c3.5-3.3,5.4-7.8,5.4-12.6s-1.9-9.3-5.4-12.6l-56-53c-9.3-8.8-13.4-21.5-11.1-34l14.2-75.8c0.9-4.7-0.2-9.5-3-13.4
				c-2.8-3.9-7-6.4-11.8-7l-76.5-9.9c-12.7-1.6-23.5-9.5-29-21.1l-33-69.6c-2.1-4.4-5.7-7.6-10.3-9.1c-4.6-1.5-9.5-1-13.7,1.3
				l-67.6,37c-11.2,6.1-24.6,6.1-35.8,0l-67.6-37c-4.2-2.3-9.1-2.8-13.7-1.3c-4.6,1.5-8.3,4.7-10.3,9.1l-33,69.6
				c-5.5,11.6-16.3,19.4-29,21.1L95.7,133c-4.8,0.6-9,3.1-11.8,7s-3.9,8.7-3,13.4L95,229.2c2.3,12.5-1.8,25.3-11.1,34l-56,53
				c-3.5,3.3-5.4,7.8-5.4,12.6c0,4.8,1.9,9.3,5.4,12.6l56,53c9.3,8.8,13.4,21.5,11.1,34l-14.2,75.8c-0.9,4.7,0.2,9.5,3,13.4
				c2.8,3.9,7,6.4,11.8,7l76.5,9.9c12.7,1.6,23.5,9.5,29,21.1l33,69.6c2.1,4.4,5.7,7.6,10.3,9.1c4.6,1.5,9.5,1,13.7-1.3l67.6-37
				C331.4,593,337.5,591.5,343.7,591.5z"/>
		</g>
	</g>
</g>
<g>
	<g>
		<g>
			<path class="st0" d="M196,254.7c0-19.6,4.9-36.3,14.8-50c9.9-13.7,24.2-20.6,42.9-20.6c17.2,0,31.5,6.2,42.8,18.5
				s17,30.4,17,54.3c0,23.2-5.7,41.1-17.2,53.7c-11.4,12.6-25.5,18.8-42.3,18.8c-16.6,0-30.5-6.2-41.5-18.6
				C201.5,298.4,196,279.7,196,254.7z M254.7,207.3c-8.4,0-15.3,3.6-20.9,10.9c-5.6,7.2-8.3,20.6-8.3,39.9c0,17.6,2.8,30,8.4,37.2
				c5.6,7.2,12.6,10.8,20.8,10.8c8.5,0,15.5-3.6,21.1-10.9c5.6-7.2,8.3-20.5,8.3-39.7c0-17.7-2.8-30.2-8.4-37.4
				C270,210.9,263,207.3,254.7,207.3z M254.9,473.6l150.3-289.6h27.4L282.8,473.6H254.9z M373.7,399c0-19.7,4.9-36.5,14.8-50.1
				c9.9-13.7,24.2-20.5,43.1-20.5c17.2,0,31.5,6.2,42.8,18.5s17,30.4,17,54.3c0,23.2-5.7,41.1-17.2,53.7
				c-11.4,12.6-25.6,18.8-42.5,18.8c-16.6,0-30.5-6.2-41.5-18.7C379.2,442.6,373.7,423.9,373.7,399z M432.5,351.6
				c-8.5,0-15.5,3.6-21.1,10.9c-5.6,7.2-8.3,20.6-8.3,39.9c0,17.5,2.8,29.9,8.4,37.1c5.6,7.2,12.6,10.9,20.8,10.9
				c8.6,0,15.7-3.6,21.3-10.9c5.6-7.2,8.3-20.5,8.3-39.7c0-17.7-2.8-30.2-8.4-37.4C447.9,355.2,440.9,351.6,432.5,351.6z"/>
		</g>
	</g>
</g>
</svg>
