<?xml version="1.0" encoding="utf-8"?>
<!-- Generator: Adobe Illustrator 22.0.0, SVG Export Plug-In . SVG Version: 6.00 Build 0)  -->
<svg version="1.1" id="Layer_1" xmlns="http://www.w3.org/2000/svg" xmlns:xlink="http://www.w3.org/1999/xlink" x="0px" y="0px"
	 viewBox="0 0 461.3 591.4" style="enable-background:new 0 0 461.3 591.4;" xml:space="preserve">
<style type="text/css">
	.st0{fill:#F57A1A;}
</style>
<g transform="translate(600 600) scale(0.69 0.69) rotate(0) translate(-600 -600)">
	<path class="st0" d="M188.1,27c0-68.6-56.6-125.1-125.1-125.1S-62.1-41.6-62.1,27S-5.6,152.1,63,152.1S188.1,97.3,188.1,27z
		 M-27.9,27c0-49.7,41.1-90.9,90.9-90.9c49.7,0,90.9,41.1,90.9,90.9s-41.1,90.9-90.9,90.9C13.3,117.9-27.9,78.4-27.9,27z"/>
	<path class="st0" d="M191.6,345.9c78.9-96,169.7-226.3,169.7-318.9c0-162.9-133.7-296.6-298.3-296.6S-233.6-135.9-233.6,27
		c0,92.6,90.9,222.9,169.7,318.9c-104.6,15.4-205.7,53.1-205.7,116.6c0,82.3,171.4,125.1,334.3,125.1C225.9,587.6,399,543,399,462.4
		C397.3,409.3,316.7,364.7,191.6,345.9z M63-235.3C208.7-235.3,327-117,327,27c0,128.6-210.9,354.9-264,409.7
		C9.9,381.9-199.3,155.6-199.3,27C-199.3-117-82.7-235.3,63-235.3z M63,553.3c-185.1,0-300-53.1-300-90.9
		c0-30.9,70.3-70.3,198.9-85.7c46.3,54.9,85.7,92.6,89.1,97.7c3.4,3.4,8.6,5.1,12,5.1c3.4,0,8.6-1.7,12-5.1
		c3.4-3.4,42.9-42.9,89.1-97.7C292.7,392.1,363,431.6,363,462.4C363,500.1,248.1,553.3,63,553.3z"/>
</g>
</svg>
