<?xml version="1.0" encoding="utf-8"?>
<!-- Generator: Adobe Illustrator 22.0.0, SVG Export Plug-In . SVG Version: 6.00 Build 0)  -->
<svg version="1.1" id="Layer_1" xmlns="http://www.w3.org/2000/svg" xmlns:xlink="http://www.w3.org/1999/xlink" x="0px" y="0px"
	 viewBox="0 0 712.1 669.9" style="enable-background:new 0 0 712.1 669.9;" xml:space="preserve">
<style type="text/css">
	.st0{fill:#F57A1A;}
</style>
<g transform="translate(600 600) scale(0.69 0.69) rotate(0) translate(-600 -600)">
	<g>
		<path class="st0" d="M762.4-80c0-1.2,0-2.4-1.2-4.8V-86c-1.2-2.4-1.2-3.6-2.4-4.8l0,0l-103.2-144c-15.6-22.8-40.8-34.8-66-34.8
			H348.4h-204H-96.8c-26.4,0-50.4,12-66,33.6L-266-92l0,0c-1.2,1.2-2.4,3.6-2.4,4.8v1.2c0,1.2-1.2,2.4-1.2,4.8v1.2v1.2v705.6
			c0,40.8,33.6,74.4,74.4,74.4h882c40.8,0,74.4-33.6,74.4-74.4V-77.6v-1.2C762.4-78.8,762.4-80,762.4-80z M589.6-221.6
			c10.8,0,20.4,4.8,26.4,13.2l75.6,106.8H468.4h-72l-34.8-120H589.6z M138.4-74l42-147.6h132l42,147.6v196.8L246.4,64l-108,58.8V-74
			z M-123.2-208.4c6-8.4,15.6-13.2,26.4-13.2H130l-34.8,120H44.8h-243.6L-123.2-208.4z M714.4,628c0,14.4-12,26.4-26.4,26.4h-883.2
			c-14.4,0-26.4-12-26.4-26.4V-53.6H46h44.4v193.2c0,13.2,7.2,25.2,18,32.4c6,3.6,12,4.8,19.2,4.8c6,0,12-1.2,18-4.8l100.8-55.2
			L347.2,172c12,6,25.2,6,37.2-1.2s18-19.2,18-32.4v-192h66h246V628z"/>
		<path class="st0" d="M330.4-77.6c0-13.2-10.8-24-24-24h-120c-13.2,0-24,10.8-24,24s10.8,24,24,24h120
			C319.6-53.6,330.4-64.4,330.4-77.6z"/>
	</g>
</g>
</svg>
