<?xml version="1.0" encoding="utf-8"?>
<!-- Generator: Adobe Illustrator 22.0.0, SVG Export Plug-In . SVG Version: 6.00 Build 0)  -->
<svg version="1.1" id="Layer_1" xmlns="http://www.w3.org/2000/svg" xmlns:xlink="http://www.w3.org/1999/xlink" x="0px" y="0px"
	 viewBox="0 0 606.3 594.7" style="enable-background:new 0 0 606.3 594.7;" xml:space="preserve">
<style type="text/css">
	.st0{fill:#F57A1A;stroke:#F57A1A;stroke-width:5;stroke-miterlimit:10;}
</style>
<g transform="translate(600 600) scale(0.69 0.69) rotate(0) translate(-600 -600)">
	<path class="st0" d="M171.3,325.7v-80.5c16.1,2,30.2,9.9,37.8,21.6c3.6,5.5,11.1,7.1,16.6,3.5c5.5-3.6,7.1-11.1,3.5-16.6
		c-12-18.3-33.7-30.3-57.9-32.6V183c0-6.6-5.4-12-12-12s-12,5.4-12,12v39c-34.2,6.2-59.8,32-59.8,62.9s25.7,56.7,59.8,62.9V428
		c-12.9-3.2-23.9-10.3-30.4-20.2c-3.6-5.6-11.1-7.1-16.6-3.5c-5.5,3.6-7.1,11.1-3.5,16.6c10.7,16.4,29.3,27.7,50.5,31.5v39.1
		c0,6.6,5.4,12,12,12s12-5.4,12-12v-38c37.8-3.6,67.2-30.8,67.2-63.9C238.5,356.6,209,329.3,171.3,325.7z M147.3,323.2
		c-20.7-5.2-35.8-20.3-35.8-38.2c0-17.9,15.1-33,35.8-38.2V323.2z M171.3,429.3V350c24.5,3.2,43.2,19.7,43.2,39.7
		C214.5,409.7,195.7,426.2,171.3,429.3z M357.8,3.2c0,22.1,18,40.1,40.1,40.1s40.1-18,40.1-40.1S420.1-37,397.9-37
		S357.8-19,357.8,3.2z M414,3.2c0,8.9-7.2,16.1-16.1,16.1S381.8,12,381.8,3.2S389-13,397.9-13S414-5.7,414,3.2z M557.6-205.2h-22.5
		v-36.7c0-13.2-10.8-24-24-24h-688.5c-13.2,0-24,10.8-24,24v36.7h-16.5c-26.5,0-48,21.5-48,48v531.8c0,26.5,21.5,48,48,48h157.3
		C-28.4,519,62.6,588.7,169.8,588.7S368,519,400.3,422.6h157.2c26.5,0,48-21.5,48-48v-531.8C605.6-183.7,584-205.2,557.6-205.2z
		 M-177.4-241.9h688.5v36.7h-688.5V-241.9z M169.8,564.7c-120.9,0-219.2-98.3-219.2-219.2c0-9.1,0.6-18.3,1.7-27.3
		c13.6-109.4,107.1-191.9,217.5-191.9c28.3,0,55.8,5.3,81.8,15.8C335,175.7,389,255.6,389,345.6C389,466.4,290.7,564.7,169.8,564.7z
		 M581.6,57.9H398c-30.2,0-54.8-24.6-54.8-54.8s24.6-54.8,54.8-54.8h183.5L581.6,57.9L581.6,57.9z M581.6-75.6H398
		c-43.4,0-78.8,35.3-78.8,78.8s35.3,78.8,78.8,78.8h183.5v292.7c0,13.2-10.8,24-24,24H407c3.8-17.1,6-34.8,6-53
		c0-99.9-59.8-188.5-152.4-225.7c-28.8-11.6-59.3-17.5-90.7-17.5c-122.5,0-226.3,91.6-241.3,213c-1.2,9.9-1.9,20.1-1.9,30.2
		c0,18.2,2.2,35.9,6,53h-150.6c-13.2,0-24-10.8-24-24v-531.8c0-13.2,10.8-24,24-24h775.5c13.2,0,24,10.8,24,24V-75.6z"/>
</g>
</svg>
