<?xml version="1.0" encoding="utf-8"?>
<!-- Generator: Adobe Illustrator 22.0.0, SVG Export Plug-In . SVG Version: 6.00 Build 0)  -->
<svg version="1.1" id="Layer_1" xmlns="http://www.w3.org/2000/svg" xmlns:xlink="http://www.w3.org/1999/xlink" x="0px" y="0px"
	 viewBox="0 0 763.3 802.1" style="enable-background:new 0 0 763.3 802.1;" xml:space="preserve">
<style type="text/css">
	.st0{fill:#F57A1A;}
</style>
<path class="st0" d="M633.9,582.2V621h-47.3L442.3,507.5L631,318.8c35.3-35.3,54.7-82.2,54.7-132C685.7,83.8,601.9,0,498.9,0
	C449,0,402.1,19.4,366.9,54.7l-4.6,4.6l-4.6-4.6C322.4,19.4,275.5,0,225.6,0C122.6,0,38.8,83.8,38.8,186.8
	c0,49.9,19.4,96.8,54.7,132.1l217.8,217.8c-0.3,2.5-0.8,4.9-0.8,7.5c0,19.9,8.9,38.6,24.5,51l14.3,11.4l-29.7,14.9l-37.7,4.7
	l-64.6-86.2c-10.5-14-27.3-22.4-44.9-22.4c-30.8,0-55.8,24.9-56,55.6l-17.4-15.2c-10.7-9.4-24.4-14.5-38.6-14.5h-1.7
	C26.3,543.4,0,569.7,0,602c0,15.7,6.1,30.4,17.2,41.5l75.7,75.7c19.5,19.6,44.1,33.4,70.9,40.1l101.1,25.3c12.1,3,24.5,4.6,37,4.6
	h281.7l50.5-10.1v23h129.4V582.2H633.9z M320.7,509.4L111.8,300.5c-30.4-30.4-47.1-70.8-47.1-113.8c0-88.7,72.2-160.9,160.9-160.9
	c43,0,83.4,16.7,113.8,47.1l22.9,22.9L385.2,73c30.4-30.4,70.8-47.1,113.8-47.1c88.7,0,160.9,72.2,160.9,160.9
	c0,43-16.7,83.4-47.1,113.8l-191,191c-11.2-8.2-24.8-12.9-38.7-12.9h-7.1C352.6,478.7,332.3,491,320.7,509.4z M142.3,595.1v-21.6
	c0-16.6,13.5-30.2,30.2-30.2c9.4,0,18.5,4.5,24.2,12.1l55.7,74.3l-28.6,3.6c-21.4,2.7-43.1-4-59.2-18.1l-23-20.1H142.3z
	 M580.9,763.3H301.8c-10.3,0-20.7-1.3-30.7-3.8L170,734.3c-22.3-5.6-42.6-17.1-58.8-33.3l-75.7-75.7c-6.2-6.2-9.6-14.4-9.6-23.2
	c0-18.1,14.7-32.8,32.8-32.8h1.8c8,0,15.6,2.9,21.6,8.1l65.5,57.3c21.7,19,50.8,27.9,79.5,24.3l100.2-12.5l43.9-22
	c4.5,4.7,8,10.4,10.1,16.7c3.8,11.3,2.9,23.4-2.4,34.1l-2.3,4.5l23.1,11.6l2.3-4.5c8.4-16.9,9.8-36,3.8-53.9
	c-4.3-12.9-12.2-24.3-22.9-32.8l-31.7-25.4c-9.4-7.6-14.8-18.8-14.8-30.9c0-21.8,17.7-39.5,39.5-39.5h7.1c8.8,0,17.5,3,24.4,8.4
	l170.4,133.9h56.2v105.8L580.9,763.3z M737.4,776.3h-77.6V608.1h77.6V776.3z"/>
</svg>
