<?xml version="1.0" encoding="utf-8"?>
<!-- Generator: Adobe Illustrator 22.0.0, SVG Export Plug-In . SVG Version: 6.00 Build 0)  -->
<svg version="1.1" id="Layer_1" xmlns="http://www.w3.org/2000/svg" xmlns:xlink="http://www.w3.org/1999/xlink" x="0px" y="0px"
	 viewBox="0 0 106.9 83.1" style="enable-background:new 0 0 106.9 83.1;" xml:space="preserve">
<g>
	<path d="M106.2,40.6c0.5,0.5,0.7,1.1,0.7,1.9c0,0.5-0.2,0.9-0.6,1.3l-4.6,5.8c-0.5,0.6-1.1,0.9-1.7,0.9c-0.6,0-1.1-0.2-1.5-0.6
		l-43.6-36c-0.5-0.2-1-0.4-1.5-0.4c-0.5,0-1,0.1-1.5,0.4l-43.6,36c-0.4,0.4-0.8,0.6-1.3,0.6c-0.7,0-1.4-0.3-1.9-0.9l-4.6-5.8
		C0.2,43.4,0,43,0,42.5c0-0.7,0.2-1.4,0.7-1.9L47.7,2c1.7-1.4,3.6-2,5.8-2c2.1,0,4,0.7,5.6,2l16.7,13.7V2.2c0-0.6,0.2-1.1,0.6-1.6
		c0.4-0.4,1-0.6,1.6-0.6h10.4c0.6,0,1.1,0.2,1.6,0.6c0.4,0.4,0.6,1,0.6,1.6V28L106.2,40.6z M52,21.5c0.5-0.2,1-0.4,1.5-0.4
		c0.5,0,1,0.1,1.5,0.4l34.1,28.2v30.4c0,0.9-0.3,1.6-0.8,2.1s-1.3,0.8-2.1,0.8H65.3c-0.9,0-1.6-0.3-2.1-0.9c-0.6-0.6-0.8-1.3-0.8-2
		V62.4c0-0.5-0.1-1-0.4-1.5c-0.2-0.5-0.6-0.9-1.1-1.1c-0.5-0.2-1-0.4-1.5-0.4H47.5c-0.9,0-1.6,0.3-2.1,0.8s-0.8,1.3-0.8,2.1v17.8
		c0,0.7-0.3,1.4-0.8,2c-0.6,0.6-1.3,0.9-2.1,0.9H20.8c-0.9,0-1.6-0.3-2.1-0.8s-0.8-1.3-0.8-2.1V49.7L52,21.5z"/>
</g>
<g>
</g>
<g>
</g>
<g>
</g>
<g>
</g>
<g>
</g>
<g>
</g>
<g>
</g>
<g>
</g>
<g>
</g>
<g>
</g>
<g>
</g>
<g>
</g>
<g>
</g>
<g>
</g>
<g>
</g>
</svg>
