<?xml version="1.0" encoding="utf-8"?>
<!-- Generator: Adobe Illustrator 22.0.0, SVG Export Plug-In . SVG Version: 6.00 Build 0)  -->
<svg version="1.1" id="Layer_1" xmlns="http://www.w3.org/2000/svg" xmlns:xlink="http://www.w3.org/1999/xlink" x="0px" y="0px"
	 viewBox="0 0 101.1 115.6" style="enable-background:new 0 0 101.1 115.6;" xml:space="preserve">
<g>
	<path d="M100.7,77.2c0.8,2.3,0.4,4.4-1,6.4c-1.4,2-3.4,3-5.8,3V112c0,1.1-0.3,1.9-1,2.6c-0.7,0.7-1.5,1-2.6,1h-7.2
		c-1.1,0-1.9-0.3-2.6-1c-0.7-0.7-1-1.5-1-2.6V86.7H21.7V112c0,1.1-0.3,1.9-1,2.6c-0.7,0.7-1.5,1-2.6,1h-7.2c-1.1,0-1.9-0.3-2.6-1
		c-0.7-0.7-1-1.5-1-2.6V86.7c-2.4,0-4.4-1-5.9-3c-1.5-2-1.8-4.2-0.9-6.4L2.8,70c1.2-3.3,3.5-5,7-5h81.7c3.5,0,5.8,1.7,7,5
		L100.7,77.2z M25.3,28.9v28.9H14.5V28.9c0-8,2.8-14.8,8.5-20.4S35.4,0,43.4,0h14.4c8,0,14.8,2.8,20.4,8.5s8.5,12.5,8.5,20.4v28.9
		H75.9V28.9c0-6.9-3-12.1-9-15.6v44.5H56v-47H45.2v47H34.4V13.3C28.4,16.8,25.3,22,25.3,28.9z"/>
</g>
<g>
</g>
<g>
</g>
<g>
</g>
<g>
</g>
<g>
</g>
<g>
</g>
<g>
</g>
<g>
</g>
<g>
</g>
<g>
</g>
<g>
</g>
<g>
</g>
<g>
</g>
<g>
</g>
<g>
</g>
</svg>
