<?xml version="1.0" encoding="utf-8"?>
<!-- Generator: Adobe Illustrator 22.0.0, SVG Export Plug-In . SVG Version: 6.00 Build 0)  -->
<svg version="1.1" id="Layer_1" xmlns="http://www.w3.org/2000/svg" xmlns:xlink="http://www.w3.org/1999/xlink" x="0px" y="0px"
	 viewBox="0 0 115.8 90.2" style="enable-background:new 0 0 115.8 90.2;" xml:space="preserve">
<g>
	<path d="M114.2,32.3c1.1,0,1.6,0.5,1.6,1.6c0,2-0.2,4.3-0.6,6.7c-0.4,2.5-1.1,5.7-2.1,9.7c-1,4-2.8,8-5.4,12.3
		c-2.6,4.2-5.9,8-9.8,11.4c-11.1,10.9-24.5,16.3-40,16.3c-15.6,0-28.9-5.4-40-16.3c-3.9-3.3-7.1-7.1-9.8-11.4
		c-2.6-4.2-4.4-8.3-5.4-12.3c-1-4-1.7-7.2-2.1-9.7C0.2,38.1,0,35.9,0,33.9c0-1.1,0.5-1.6,1.6-1.6c2.1,0,4.5,0.2,7.1,0.5
		c2.6,0.3,6,1,10.3,2c4.2,1,8.6,2.7,13.2,5.1c4.6,2.4,8.7,5.4,12.5,9.1c5.8,5.2,10.2,11.6,13.3,19.1C61,60.6,65.4,54.2,71.2,49
		c3.8-3.6,7.9-6.6,12.5-9.1c4.6-2.4,8.9-4.1,13.2-5.1c4.2-1,7.6-1.7,10.3-2C109.7,32.4,112.1,32.3,114.2,32.3z M57.9,54.6
		c-2.5-3.9-5.6-7.4-9.1-10.5c-3.5-3.4-7.4-6.3-11.9-8.8c3.5-14.9,9.9-26.4,19.3-34.6c1.1-0.9,2.1-0.9,3.2,0
		c9.5,8.2,16,19.7,19.3,34.6c-4.6,2.5-8.6,5.6-12.1,9.1C63.4,47.3,60.5,50.7,57.9,54.6z"/>
</g>
<g>
</g>
<g>
</g>
<g>
</g>
<g>
</g>
<g>
</g>
<g>
</g>
<g>
</g>
<g>
</g>
<g>
</g>
<g>
</g>
<g>
</g>
<g>
</g>
<g>
</g>
<g>
</g>
<g>
</g>
</svg>
