<?xml version="1.0" encoding="utf-8"?>
<!-- Generator: Adobe Illustrator 22.0.0, SVG Export Plug-In . SVG Version: 6.00 Build 0)  -->
<svg version="1.1" id="Layer_1" xmlns="http://www.w3.org/2000/svg" xmlns:xlink="http://www.w3.org/1999/xlink" x="0px" y="0px"
	 viewBox="0 0 92.2 105.4" style="enable-background:new 0 0 92.2 105.4;" xml:space="preserve">
<g>
	<path d="M92.2,74.1c0,1.6-0.6,3-1.9,3.9c-0.4,1.5-0.6,4-0.6,7.6c0,3.6,0.2,6.1,0.6,7.6c1.2,1.1,1.9,2.4,1.9,3.9v3.3
		c0,1.4-0.5,2.5-1.4,3.5c-1,1-2.1,1.4-3.5,1.4H19.8c-5.5,0-10.2-1.9-14-5.8C1.9,95.8,0,91.1,0,85.6V19.8c0-5.5,1.9-10.2,5.8-14
		C9.6,1.9,14.3,0,19.8,0h67.5c1.4,0,2.5,0.5,3.5,1.4c1,1,1.4,2.1,1.4,3.5V74.1z M78.4,92.2c-0.4-4.4-0.4-8.8,0-13.2H19.8
		c-1.8,0-3.3,0.7-4.6,2c-1.3,1.3-2,2.8-2,4.6c0,1.8,0.6,3.3,2,4.6c1.3,1.3,2.8,2,4.6,2H78.4z M26.4,27.6v4.1c0,0.8,0.4,1.2,1.2,1.2
		h43.6c0.8,0,1.2-0.4,1.2-1.2v-4.1c0-0.8-0.4-1.2-1.2-1.2H27.6C26.8,26.4,26.4,26.8,26.4,27.6z M26.4,40.8v4.1
		c0,0.8,0.4,1.2,1.2,1.2h43.6c0.8,0,1.2-0.4,1.2-1.2v-4.1c0-0.8-0.4-1.2-1.2-1.2H27.6C26.8,39.5,26.4,39.9,26.4,40.8z"/>
</g>
<g>
</g>
<g>
</g>
<g>
</g>
<g>
</g>
<g>
</g>
<g>
</g>
<g>
</g>
<g>
</g>
<g>
</g>
<g>
</g>
<g>
</g>
<g>
</g>
<g>
</g>
<g>
</g>
<g>
</g>
</svg>
