<?xml version="1.0" encoding="utf-8"?>
<!-- Generator: Adobe Illustrator 22.0.0, SVG Export Plug-In . SVG Version: 6.00 Build 0)  -->
<svg version="1.1" id="Layer_1" xmlns="http://www.w3.org/2000/svg" xmlns:xlink="http://www.w3.org/1999/xlink" x="0px" y="0px"
	 viewBox="0 0 133.8 100.3" style="enable-background:new 0 0 133.8 100.3;" xml:space="preserve">
<g>
	<path d="M130.6,29.2c1,0,1.9,0.4,2.5,1.2c0.6,0.8,0.8,1.7,0.7,2.7l-1.6,6.3c-0.5,1.6-1.6,2.4-3.1,2.4h-5.2
		c3.8,3.3,5.7,7.5,5.7,12.5v12.5c0,4.2-1.4,7.8-4.2,11v14.1c0,2.3-0.8,4.2-2.5,5.9c-1.7,1.7-3.6,2.5-5.9,2.5h-8.4
		c-2.3,0-4.2-0.8-5.9-2.5c-1.7-1.7-2.5-3.6-2.5-5.9v-8.4H33.5v8.4c0,2.3-0.8,4.2-2.5,5.9c-1.7,1.7-3.6,2.5-5.9,2.5h-8.4
		c-2.3,0-4.2-0.8-5.9-2.5c-1.7-1.7-2.5-3.6-2.5-5.9V77.8c-2.8-3.1-4.2-6.8-4.2-11V54.3c0-5,1.9-9.2,5.7-12.5H4.8
		c-1.6,0-2.6-0.8-3.1-2.4l-1.6-6.3c-0.2-1,0-2,0.7-2.7c0.6-0.8,1.4-1.2,2.5-1.2h15.7l4.4-11c1-2.6,2.5-5.1,4.3-7.4
		c1.8-2.3,3.9-4.3,6.3-5.9c2.4-1.6,4.9-2.8,7.7-3.7C44.4,0.4,47.2,0,50.2,0h33.4C89.5,0,95,1.7,99.9,5c5,3.3,8.5,7.7,10.6,13.3
		l4.4,11H130.6z M25.1,66.8c0.3,0,1.1,0,2.2,0c1.1,0,2,0,2.5,0c0.5,0,1.3,0,2.2-0.1c1-0.1,1.7-0.2,2.2-0.4c0.5-0.2,1.1-0.4,1.7-0.7
		c0.6-0.3,1-0.7,1.3-1.2c0.3-0.5,0.4-1.1,0.4-1.8c0-2.6-1.5-5.4-4.4-8.2c-3-2.9-5.7-4.3-8.1-4.3c-2.4,0-4.4,0.8-6,2.3
		c-1.6,1.6-2.3,3.6-2.3,6c0,2.4,0.8,4.4,2.3,6C20.7,66.1,22.7,66.8,25.1,66.8z M38.7,24.5l-5.2,13.1h66.8l-5.2-13.1
		c-0.9-2.3-2.4-4.1-4.6-5.6c-2.2-1.5-4.5-2.2-6.9-2.2H50.2c-2.4,0-4.7,0.7-6.9,2.2C41.1,20.4,39.6,22.3,38.7,24.5z M108.7,66.8
		c2.4,0,4.4-0.8,6-2.3c1.6-1.6,2.3-3.6,2.3-6c0-2.4-0.8-4.4-2.3-6c-1.6-1.6-3.6-2.3-6-2.3c-1.6,0-3.4,0.7-5.4,2.1
		c-2,1.4-3.7,3.1-5.1,5.1c-1.4,2-2.1,3.8-2.1,5.4c0,0.7,0.1,1.3,0.4,1.8c0.3,0.5,0.7,0.9,1.3,1.2c0.6,0.3,1.2,0.5,1.7,0.7
		c0.5,0.2,1.3,0.3,2.2,0.4c1,0.1,1.7,0.1,2.2,0.1c0.5,0,1.3,0,2.5,0C107.6,66.8,108.3,66.8,108.7,66.8z"/>
</g>
<g>
</g>
<g>
</g>
<g>
</g>
<g>
</g>
<g>
</g>
<g>
</g>
<g>
</g>
<g>
</g>
<g>
</g>
<g>
</g>
<g>
</g>
<g>
</g>
<g>
</g>
<g>
</g>
<g>
</g>
</svg>
