<?xml version="1.0" encoding="utf-8"?>
<!-- Generator: Adobe Illustrator 22.0.0, SVG Export Plug-In . SVG Version: 6.00 Build 0)  -->
<svg version="1.1" id="Layer_1" xmlns="http://www.w3.org/2000/svg" xmlns:xlink="http://www.w3.org/1999/xlink" x="0px" y="0px"
	 viewBox="0 0 104 91" style="enable-background:new 0 0 104 91;" xml:space="preserve">
<g>
	<path d="M97.5,26c1.8,0,3.3,0.6,4.6,1.9c1.3,1.3,1.9,2.8,1.9,4.6v16.2c0,0.9-0.3,1.7-0.9,2.3c-0.6,0.6-1.4,0.9-2.3,0.9H3.3
		c-0.9,0-1.7-0.3-2.3-0.9C0.3,50.5,0,49.7,0,48.8V32.5c0-1.8,0.6-3.3,1.9-4.6C3.2,26.6,4.7,26,6.5,26h8.9c-1.4-2.6-2-5.3-2-8.1
		c0-4.9,1.8-9.1,5.3-12.6C22.2,1.8,26.4,0,31.3,0c4.1,0,7.6,1.1,10.8,3.3c3.1,2.2,6.5,5.7,10.2,10.6c3.7-4.9,7-8.4,10.2-10.6
		C65.5,1.1,69.1,0,73.1,0c4.9,0,9.1,1.8,12.6,5.3C89.2,8.8,91,13,91,17.9c0,2.7-0.7,5.4-2,8.1H97.5z M6.5,84.5v-26h39V91H13
		c-1.8,0-3.3-0.6-4.6-1.9C7.1,87.8,6.5,86.3,6.5,84.5z M31.3,26h17.5c-4.7-7.2-8.2-11.7-10.5-13.5c-2.2-1.8-4.6-2.7-7-2.7
		c-1.5,0-2.8,0.4-4.1,1.1c-1.2,0.7-2.2,1.7-2.9,2.9c-0.7,1.2-1.1,2.6-1.1,4.1c0,2.3,0.8,4.2,2.3,5.8C27,25.2,29,26,31.3,26z
		 M73.1,26c2.3,0,4.2-0.8,5.8-2.3c1.6-1.6,2.3-3.5,2.3-5.8c0-2.3-0.8-4.2-2.3-5.8c-1.6-1.6-3.5-2.3-5.8-2.3c-1.6,0-3,0.2-4.2,0.7
		c-1.2,0.5-2.8,1.9-5,4.4C61.8,17.3,59,21,55.7,26H73.1z M58.5,91V58.5h39v26c0,1.8-0.6,3.3-1.9,4.6C94.3,90.4,92.8,91,91,91H58.5z"
		/>
</g>
<g>
</g>
<g>
</g>
<g>
</g>
<g>
</g>
<g>
</g>
<g>
</g>
<g>
</g>
<g>
</g>
<g>
</g>
<g>
</g>
<g>
</g>
<g>
</g>
<g>
</g>
<g>
</g>
<g>
</g>
</svg>
