<?xml version="1.0" encoding="utf-8"?>
<!-- Generator: Adobe Illustrator 22.0.0, SVG Export Plug-In . SVG Version: 6.00 Build 0)  -->
<svg version="1.1" id="Layer_1" xmlns="http://www.w3.org/2000/svg" xmlns:xlink="http://www.w3.org/1999/xlink" x="0px" y="0px"
	 viewBox="0 0 99.7 99.6" style="enable-background:new 0 0 99.7 99.6;" xml:space="preserve">
<g>
	<path d="M7.3,57.1c4.9-4.9,10.7-7.3,17.6-7.3c6.9,0,12.7,2.4,17.6,7.3c4.9,4.9,7.3,10.7,7.3,17.6c0,6.9-2.4,12.7-7.3,17.6
		c-4.9,4.9-10.7,7.3-17.6,7.3c-6.9,0-12.7-2.4-17.6-7.3C2.4,87.5,0,81.6,0,74.7C0,67.8,2.4,62,7.3,57.1z M93.2,43.6h-37
		c-2.5,0-4.3-1-5.5-3.1c-1.2-2.1-1.3-4.1-0.1-6.2L69.1,3.1C70.4,1,72.2,0,74.7,0c2.5,0,4.3,1,5.6,3.1l18.5,31.1
		c1.2,2.1,1.1,4.2-0.1,6.2C97.5,42.5,95.7,43.6,93.2,43.6z M99.6,62.3v31.1c0,1.7-0.6,3.1-1.8,4.4c-1.2,1.2-2.7,1.8-4.4,1.8H62.3
		c-1.7,0-3.1-0.6-4.4-1.8c-1.2-1.2-1.8-2.7-1.8-4.4V62.3c0-1.7,0.6-3.1,1.8-4.4c1.2-1.2,2.7-1.8,4.4-1.8h31.1c1.7,0,3.1,0.6,4.4,1.8
		C99,59.1,99.6,60.6,99.6,62.3z"/>
</g>
<g>
</g>
<g>
</g>
<g>
</g>
<g>
</g>
<g>
</g>
<g>
</g>
<g>
</g>
<g>
</g>
<g>
</g>
<g>
</g>
<g>
</g>
<g>
</g>
<g>
</g>
<g>
</g>
<g>
</g>
</svg>
