<?xml version="1.0" encoding="utf-8"?>
<!-- Generator: Adobe Illustrator 22.0.0, SVG Export Plug-In . SVG Version: 6.00 Build 0)  -->
<svg version="1.1" id="Layer_1" xmlns="http://www.w3.org/2000/svg" xmlns:xlink="http://www.w3.org/1999/xlink" x="0px" y="0px"
	 viewBox="0 0 63.5 101.6" style="enable-background:new 0 0 63.5 101.6;" xml:space="preserve">
<g>
	<path d="M54,0c2.6,0,4.9,0.9,6.7,2.8c1.9,1.9,2.8,4.1,2.8,6.7v82.5c0,2.6-0.9,4.9-2.8,6.7c-1.9,1.9-4.1,2.8-6.7,2.8H9.5
		c-2.6,0-4.9-0.9-6.7-2.8C0.9,97,0,94.7,0,92.1V9.5c0-2.6,0.9-4.9,2.8-6.7C4.6,0.9,6.9,0,9.5,0H54z M54,73.8V11.9
		c0-1.6-0.8-2.4-2.4-2.4H11.9c-1.6,0-2.4,0.8-2.4,2.4v61.9c0,1.6,0.8,2.4,2.4,2.4h39.7C53.2,76.2,54,75.4,54,73.8z M27.3,93.4
		c1.3,1.3,2.7,1.9,4.5,1.9c1.7,0,3.2-0.6,4.5-1.9c1.3-1.3,1.9-2.7,1.9-4.5c0-1.7-0.6-3.2-1.9-4.5c-1.3-1.3-2.7-1.9-4.5-1.9
		c-1.7,0-3.2,0.6-4.5,1.9c-1.3,1.3-1.9,2.7-1.9,4.5C25.4,90.6,26,92.1,27.3,93.4z"/>
</g>
<g>
</g>
<g>
</g>
<g>
</g>
<g>
</g>
<g>
</g>
<g>
</g>
<g>
</g>
<g>
</g>
<g>
</g>
<g>
</g>
<g>
</g>
<g>
</g>
<g>
</g>
<g>
</g>
<g>
</g>
</svg>
