<?xml version="1.0" encoding="utf-8"?>
<!-- Generator: Adobe Illustrator 22.0.0, SVG Export Plug-In . SVG Version: 6.00 Build 0)  -->
<svg version="1.1" id="Layer_1" xmlns="http://www.w3.org/2000/svg" xmlns:xlink="http://www.w3.org/1999/xlink" x="0px" y="0px"
	 viewBox="0 0 119.9 83.8" style="enable-background:new 0 0 119.9 83.8;" xml:space="preserve">
<g>
	<path d="M104.9,83.8H9.1c-4.1,0-6.9-2-8.4-6c-1.1-3-0.9-4.9,0.7-5.8c0.2-0.1,0.6-0.2,0.9-0.2h109.3c1.9,0,2.6,1.4,2.1,4.3
		c-0.6,3.6-2.6,6-5.8,7.1C106.9,83.7,105.9,83.8,104.9,83.8z M36.1,65.9c-5,0-9.2-1.7-12.7-5.2c-3.5-3.5-5.2-7.7-5.2-12.7V4.5
		c0-1.2,0.4-2.3,1.3-3.2C20.3,0.4,21.3,0,22.6,0H96c6.6,0,12.3,2.3,16.9,7c4.7,4.7,7,10.3,7,16.9c0,6.6-2.3,12.3-7,16.9
		c-4.7,4.7-10.3,7-16.9,7h-6c0,5-1.7,9.2-5.2,12.7c-3.5,3.5-7.7,5.2-12.7,5.2H36.1z M96,12h-6v24h6c3.2,0,6.1-1.2,8.4-3.6
		c2.4-2.4,3.6-5.2,3.6-8.4c0-3.2-1.2-6.1-3.6-8.4C102,13.2,99.2,12,96,12z"/>
</g>
<g>
</g>
<g>
</g>
<g>
</g>
<g>
</g>
<g>
</g>
<g>
</g>
<g>
</g>
<g>
</g>
<g>
</g>
<g>
</g>
<g>
</g>
<g>
</g>
<g>
</g>
<g>
</g>
<g>
</g>
</svg>
