<?xml version="1.0" encoding="utf-8"?>
<!-- Generator: Adobe Illustrator 22.0.0, SVG Export Plug-In . SVG Version: 6.00 Build 0)  -->
<svg version="1.1" id="Layer_1" xmlns="http://www.w3.org/2000/svg" xmlns:xlink="http://www.w3.org/1999/xlink" x="0px" y="0px"
	 viewBox="0 0 101.6 101.6" style="enable-background:new 0 0 101.6 101.6;" xml:space="preserve">
<g>
	<path d="M31.7,57.1v8.1L0.4,96.8C0.1,96,0,95.5,0,95.2V6.3c0-1.7,0.6-3.2,1.9-4.5C3.1,0.6,4.6,0,6.3,0h19c1.7,0,3.2,0.6,4.5,1.9
		c1.3,1.3,1.9,2.7,1.9,4.5v6.3H20.6c-1.1,0-1.6,0.5-1.6,1.6v3.2c0,1.1,0.5,1.6,1.6,1.6h11.1v12.7H20.6c-1.1,0-1.6,0.5-1.6,1.6v3.2
		c0,1.1,0.5,1.6,1.6,1.6h11.1v12.7H20.6c-1.1,0-1.6,0.5-1.6,1.6v3.2c0,1.1,0.5,1.6,1.6,1.6H31.7z M95.2,69.8c1.7,0,3.2,0.6,4.5,1.9
		c1.3,1.3,1.9,2.7,1.9,4.5v19c0,1.7-0.6,3.2-1.9,4.5c-1.3,1.3-2.7,1.9-4.5,1.9H6.3c-0.3,0-0.8-0.1-1.6-0.4l31.5-31.4h8.1V81
		c0,1.1,0.5,1.6,1.6,1.6h3.2c1.1,0,1.6-0.5,1.6-1.6V69.8h12.7V81c0,1.1,0.5,1.6,1.6,1.6h3.2c1.1,0,1.6-0.5,1.6-1.6V69.8h12.7V81
		c0,1.1,0.5,1.6,1.6,1.6h3.2c1.1,0,1.6-0.5,1.6-1.6V69.8H95.2z"/>
</g>
<g>
</g>
<g>
</g>
<g>
</g>
<g>
</g>
<g>
</g>
<g>
</g>
<g>
</g>
<g>
</g>
<g>
</g>
<g>
</g>
<g>
</g>
<g>
</g>
<g>
</g>
<g>
</g>
<g>
</g>
</svg>
