<?xml version="1.0" encoding="utf-8"?>
<!-- Generator: Adobe Illustrator 22.0.0, SVG Export Plug-In . SVG Version: 6.00 Build 0)  -->
<svg version="1.1" id="Layer_1" xmlns="http://www.w3.org/2000/svg" xmlns:xlink="http://www.w3.org/1999/xlink" x="0px" y="0px"
	 viewBox="0 0 100.8 89.6" style="enable-background:new 0 0 100.8 89.6;" xml:space="preserve">
<g>
	<path d="M95.6,1.7c3.5,7.7,5.2,16.1,5.2,25.2c0,15.3-4.4,28.3-13.2,39.1c-8.8,10.8-20,16.7-33.7,17.8c-6.5,0.7-12.4-0.3-17.8-3
		c-5.3-2.7-9.5-6.2-12.7-10.5c-6.2,5.1-10.4,10.4-12.6,15.7c-0.6,1.4-1.6,2.4-3.1,3.1c-1.5,0.6-2.9,0.7-4.3,0.1
		c-1.4-0.6-2.4-1.6-3.1-3.1c-0.6-1.5-0.7-2.9-0.1-4.3c1-2.4,2.5-5,4.4-7.8c1.9-2.7,4.7-5.9,8.4-9.5c3.7-3.6,8-6.8,12.7-9.6
		c4.7-2.8,10.7-5.2,18-7.2c7.3-2,15.1-3,23.4-3c0.8,0,1.5-0.3,2-0.8c0.5-0.5,0.8-1.2,0.8-2c0-0.8-0.3-1.5-0.8-2
		c-0.5-0.5-1.2-0.8-2-0.8c-19.7,0-36.4,4.9-50,14.7c-0.2-1.6-0.4-2.8-0.4-3.5c0-9.3,3.3-17.3,9.8-23.8c6.5-6.5,14.5-9.8,23.8-9.8h14
		c5.5,0,10.5-1.4,15.1-4.1c4.6-2.7,8.3-6.5,11.1-11.3C91.3,0.5,92.1,0,93.2,0C94.3,0,95.1,0.6,95.6,1.7z"/>
</g>
<g>
</g>
<g>
</g>
<g>
</g>
<g>
</g>
<g>
</g>
<g>
</g>
<g>
</g>
<g>
</g>
<g>
</g>
<g>
</g>
<g>
</g>
<g>
</g>
<g>
</g>
<g>
</g>
<g>
</g>
</svg>
