<?xml version="1.0" encoding="utf-8"?>
<!-- Generator: Adobe Illustrator 22.0.0, SVG Export Plug-In . SVG Version: 6.00 Build 0)  -->
<svg version="1.1" id="Layer_1" xmlns="http://www.w3.org/2000/svg" xmlns:xlink="http://www.w3.org/1999/xlink" x="0px" y="0px"
	 viewBox="0 0 121.1 96.9" style="enable-background:new 0 0 121.1 96.9;" xml:space="preserve">
<g>
	<path d="M118.1,78.7c0.9,0,1.6,0.3,2.2,0.9c0.6,0.6,0.9,1.3,0.9,2.2v3c0,3.3-1.2,6.1-3.6,8.5c-2.4,2.4-5.2,3.6-8.5,3.6H12.1
		c-3.3,0-6.1-1.2-8.5-3.6C1.2,90.9,0,88.1,0,84.8v-3c0-0.9,0.3-1.6,0.9-2.2C1.4,79,2.1,78.7,3,78.7h45.2c0,1.4,0.6,2.7,1.9,4.1
		c1.3,1.3,2.7,2,4.4,2h11.5c1.8,0,3.2-0.5,4.4-1.6c1.1-1.1,1.8-2.6,1.9-4.4H118.1z M109,9.1v63.6H12.1V9.1c0-2.5,0.9-4.7,2.6-6.4
		C16.5,0.9,18.7,0,21.2,0h78.7c2.5,0,4.7,0.9,6.4,2.6C108.1,4.4,109,6.6,109,9.1z M96.9,60.6V12.1H24.2v48.5H96.9z"/>
</g>
<g>
</g>
<g>
</g>
<g>
</g>
<g>
</g>
<g>
</g>
<g>
</g>
<g>
</g>
<g>
</g>
<g>
</g>
<g>
</g>
<g>
</g>
<g>
</g>
<g>
</g>
<g>
</g>
<g>
</g>
</svg>
