<?xml version="1.0" encoding="utf-8"?>
<!-- Generator: Adobe Illustrator 22.0.0, SVG Export Plug-In . SVG Version: 6.00 Build 0)  -->
<svg version="1.1" id="Layer_1" xmlns="http://www.w3.org/2000/svg" xmlns:xlink="http://www.w3.org/1999/xlink" x="0px" y="0px"
	 viewBox="0 0 101.5 101.5" style="enable-background:new 0 0 101.5 101.5;" xml:space="preserve">
<g>
	<path d="M86.6,14.8c9.9,9.9,14.8,21.8,14.8,35.8c0,14-4.9,26-14.8,35.9c-9.9,10-21.9,14.9-35.9,14.9c-12,0-22.6-3.8-31.9-11.3
		c-1.1-1-1.7-2.1-1.7-3.6c-0.1-1.4,0.4-2.7,1.5-3.8l2.3-2.3c0.8-0.8,1.9-1.3,3.2-1.3c1.3-0.1,2.4,0.2,3.4,0.9
		c6.8,5.5,14.6,8.2,23.3,8.2c10.4,0,19.2-3.7,26.6-11c7.4-7.4,11-16.2,11-26.6c0-10.4-3.7-19.2-11-26.6c-7.4-7.4-16.2-11-26.6-11
		c-10,0-18.6,3.4-25.8,10.2l10.4,10.4c1,1,1.2,2.1,0.6,3.5c-0.5,1.4-1.6,2-3.1,2H3.3c-1,0-1.7-0.3-2.4-0.9C0.3,37.7,0,37,0,36V6.3
		c0-1.5,0.7-2.5,2-3.1c1.4-0.5,2.5-0.3,3.5,0.6l10.2,10.2C25.6,4.7,37.2,0,50.7,0C64.8,0,76.8,4.9,86.6,14.8z M64.4,66.7
		c-0.8,1.1-1.9,1.7-3.3,1.9c-1.4,0.2-2.6-0.1-3.7-0.9L44.2,57.3V29.5c0-1.4,0.5-2.5,1.4-3.5c1-1,2.1-1.4,3.5-1.4h3.3
		c1.4,0,2.5,0.5,3.5,1.4c1,1,1.4,2.1,1.4,3.5v21.3l8.4,6.5c1.1,0.8,1.7,1.9,1.8,3.3c0.1,1.4-0.2,2.6-1,3.7L64.4,66.7z"/>
</g>
<g>
</g>
<g>
</g>
<g>
</g>
<g>
</g>
<g>
</g>
<g>
</g>
<g>
</g>
<g>
</g>
<g>
</g>
<g>
</g>
<g>
</g>
<g>
</g>
<g>
</g>
<g>
</g>
<g>
</g>
</svg>
