<?xml version="1.0" encoding="utf-8"?>
<!-- Generator: Adobe Illustrator 22.0.0, SVG Export Plug-In . SVG Version: 6.00 Build 0)  -->
<svg version="1.1" id="Layer_1" xmlns="http://www.w3.org/2000/svg" xmlns:xlink="http://www.w3.org/1999/xlink" x="0px" y="0px"
	 viewBox="0 0 108 108" style="enable-background:new 0 0 108 108;" xml:space="preserve">
<g>
	<path d="M104.6,40.5c1,0,1.8,0.3,2.4,0.9s0.9,1.4,0.9,2.4v6.7c0,1-0.3,1.8-0.9,2.4s-1.4,0.9-2.4,0.9h-3.4c0,8.4-2.4,16.1-7.1,22.9
		c-4.7,6.8-10.9,11.7-18.5,14.7c2.8,3.8,4.6,7.9,5.3,12.4c0.1,1-0.1,1.9-0.8,2.7c-0.7,0.8-1.5,1.3-2.5,1.3H30.4
		c-1,0-1.8-0.4-2.5-1.3c-0.7-0.8-1-1.8-0.8-2.7c0.7-4.5,2.5-8.6,5.3-12.4c-7.6-3-13.7-7.8-18.5-14.7C9.1,70.1,6.8,62.4,6.8,54H3.4
		c-1,0-1.8-0.3-2.4-0.9S0,51.6,0,50.6v-6.7c0-1,0.3-1.8,0.9-2.4s1.4-0.9,2.4-0.9H104.6z M105.9,12.9L84.8,33.7H52.9L96,1.5
		c1.3-1,2.7-1.5,4.4-1.5c1.3,0,2.4,0.3,3.4,0.8c2.4,1.1,3.8,3,4.1,5.5C108.2,8.9,107.6,11,105.9,12.9z"/>
</g>
<g>
</g>
<g>
</g>
<g>
</g>
<g>
</g>
<g>
</g>
<g>
</g>
<g>
</g>
<g>
</g>
<g>
</g>
<g>
</g>
<g>
</g>
<g>
</g>
<g>
</g>
<g>
</g>
<g>
</g>
</svg>
