<?xml version="1.0" encoding="utf-8"?>
<!-- Generator: Adobe Illustrator 22.0.0, SVG Export Plug-In . SVG Version: 6.00 Build 0)  -->
<svg version="1.1" id="Layer_1" xmlns="http://www.w3.org/2000/svg" xmlns:xlink="http://www.w3.org/1999/xlink" x="0px" y="0px"
	 viewBox="0 0 106 106" style="enable-background:new 0 0 106 106;" xml:space="preserve">
<g>
	<path d="M46.4,33.1c5.5,0,10.2,1.9,14.1,5.8c3.9,3.9,5.8,8.6,5.8,14.1v46.4c0,1.8-0.7,3.3-2,4.7c-1.3,1.3-2.9,2-4.7,2h-53
		c-1.8,0-3.3-0.7-4.7-2c-1.3-1.3-2-2.9-2-4.7V53c0-5.5,1.9-10.2,5.8-14.1c3.9-3.9,8.6-5.8,14.1-5.8H46.4z M21.4,81.3
		c3.2,3.2,7.1,4.9,11.7,4.9c4.6,0,8.5-1.6,11.7-4.9c3.2-3.2,4.9-7.1,4.9-11.7c0-4.6-1.6-8.5-4.9-11.7c-3.2-3.2-7.1-4.9-11.7-4.9
		c-4.6,0-8.5,1.6-11.7,4.9c-3.2,3.2-4.9,7.1-4.9,11.7C16.6,74.1,18.2,78,21.4,81.3z M46.4,6.6v19.9H19.9V6.6c0-1.8,0.7-3.3,2-4.7
		c1.3-1.3,2.9-2,4.7-2h13.2c1.8,0,3.3,0.7,4.7,2C45.7,3.3,46.4,4.8,46.4,6.6z M55,8.6c1.3-1.3,2.9-2,4.7-2c1.8,0,3.3,0.7,4.7,2
		c1.3,1.3,2,2.9,2,4.7c0,1.8-0.7,3.3-2,4.7c-1.3,1.3-2.9,2-4.7,2c-1.8,0-3.3-0.7-4.7-2c-1.3-1.3-2-2.9-2-4.7
		C53,11.5,53.7,9.9,55,8.6z M74.8,8.6c1.3-1.3,2.9-2,4.7-2c1.8,0,3.3,0.7,4.7,2c1.3,1.3,2,2.9,2,4.7c0,1.8-0.7,3.3-2,4.7
		c-1.3,1.3-2.9,2-4.7,2c-1.8,0-3.3-0.7-4.7-2c-1.3-1.3-2-2.9-2-4.7C72.9,11.5,73.5,9.9,74.8,8.6z M74.8,28.5c1.3-1.3,2.9-2,4.7-2
		c1.8,0,3.3,0.7,4.7,2c1.3,1.3,2,2.9,2,4.7c0,1.8-0.7,3.3-2,4.7c-1.3,1.3-2.9,2-4.7,2c-1.8,0-3.3-0.7-4.7-2c-1.3-1.3-2-2.9-2-4.7
		C72.9,31.3,73.5,29.8,74.8,28.5z M104,17.9c-1.3,1.3-2.9,2-4.7,2c-1.8,0-3.3-0.7-4.7-2c-1.3-1.3-2-2.9-2-4.7c0-1.8,0.7-3.3,2-4.7
		c1.3-1.3,2.9-2,4.7-2c1.8,0,3.3,0.7,4.7,2c1.3,1.3,2,2.9,2,4.7C106,15,105.3,16.6,104,17.9z M94.7,28.5c1.3-1.3,2.9-2,4.7-2
		c1.8,0,3.3,0.7,4.7,2c1.3,1.3,2,2.9,2,4.7c0,1.8-0.7,3.3-2,4.7c-1.3,1.3-2.9,2-4.7,2c-1.8,0-3.3-0.7-4.7-2c-1.3-1.3-2-2.9-2-4.7
		C92.7,31.3,93.4,29.8,94.7,28.5z M94.7,48.3c1.3-1.3,2.9-2,4.7-2c1.8,0,3.3,0.7,4.7,2c1.3,1.3,2,2.9,2,4.7c0,1.8-0.7,3.3-2,4.7
		c-1.3,1.3-2.9,2-4.7,2c-1.8,0-3.3-0.7-4.7-2c-1.3-1.3-2-2.9-2-4.7C92.7,51.2,93.4,49.7,94.7,48.3z"/>
</g>
<g>
</g>
<g>
</g>
<g>
</g>
<g>
</g>
<g>
</g>
<g>
</g>
<g>
</g>
<g>
</g>
<g>
</g>
<g>
</g>
<g>
</g>
<g>
</g>
<g>
</g>
<g>
</g>
<g>
</g>
</svg>
