<?xml version="1.0" encoding="utf-8"?>
<!-- Generator: Adobe Illustrator 22.0.0, SVG Export Plug-In . SVG Version: 6.00 Build 0)  -->
<svg version="1.1" id="Layer_1" xmlns="http://www.w3.org/2000/svg" xmlns:xlink="http://www.w3.org/1999/xlink" x="0px" y="0px"
	 viewBox="0 0 104.7 91.6" style="enable-background:new 0 0 104.7 91.6;" xml:space="preserve">
<g>
	<path d="M104.7,22.9v58.9c0,2.7-1,5-2.9,7c-1.9,1.9-4.2,2.9-7,2.9h-85c-2.7,0-5-1-7-2.9C1,86.8,0,84.5,0,81.8V22.9c0-2.7,1-5,2.9-7
		c1.9-1.9,4.2-2.9,7-2.9h18l2.5-6.7c0.5-1.2,1.3-2.3,2.1-3.3c0.9-1,1.9-1.7,3.2-2.2C36.8,0.3,38.1,0,39.5,0h25.8
		c2,0,3.9,0.6,5.5,1.7c1.6,1.2,2.9,2.7,3.7,4.6l2.5,6.7h18c2.7,0,5,1,7,2.9C103.7,17.9,104.7,20.2,104.7,22.9z M69.7,69.7
		c4.8-4.8,7.2-10.6,7.2-17.4c0-6.8-2.4-12.6-7.2-17.4c-4.8-4.8-10.6-7.2-17.4-7.2c-6.8,0-12.6,2.4-17.4,7.2
		c-4.8,4.8-7.2,10.6-7.2,17.4c0,6.8,2.4,12.6,7.2,17.4c4.8,4.8,10.6,7.2,17.4,7.2C59.2,76.9,64.9,74.5,69.7,69.7z M65,39.7
		c3.5,3.5,5.3,7.8,5.3,12.7c0,4.9-1.8,9.1-5.3,12.7c-3.5,3.5-7.8,5.3-12.7,5.3c-4.9,0-9.1-1.8-12.7-5.3c-3.5-3.5-5.3-7.8-5.3-12.7
		c0-4.9,1.8-9.1,5.3-12.7c3.5-3.5,7.8-5.3,12.7-5.3C57.2,34.3,61.5,36.1,65,39.7z"/>
</g>
<g>
</g>
<g>
</g>
<g>
</g>
<g>
</g>
<g>
</g>
<g>
</g>
<g>
</g>
<g>
</g>
<g>
</g>
<g>
</g>
<g>
</g>
<g>
</g>
<g>
</g>
<g>
</g>
<g>
</g>
</svg>
