<?xml version="1.0" encoding="utf-8"?>
<!-- Generator: Adobe Illustrator 22.0.0, SVG Export Plug-In . SVG Version: 6.00 Build 0)  -->
<svg version="1.1" id="Layer_1" xmlns="http://www.w3.org/2000/svg" xmlns:xlink="http://www.w3.org/1999/xlink" x="0px" y="0px"
	 viewBox="0 0 106 84.8" style="enable-background:new 0 0 106 84.8;" xml:space="preserve">
<g>
	<path d="M92.7,74.2c0.8,0,1.4,0.2,1.9,0.7c0.5,0.5,0.7,1.1,0.7,1.9v5.3c0,0.8-0.2,1.4-0.7,1.9c-0.5,0.5-1.1,0.7-1.9,0.7H2.6
		c-0.8,0-1.4-0.2-1.9-0.7C0.2,83.6,0,82.9,0,82.2v-5.3c0-0.8,0.2-1.4,0.7-1.9c0.5-0.5,1.1-0.7,1.9-0.7h39.2L54,41.1l9.9,3.6
		L53.2,74.2H92.7z M19,22.7c-0.8-0.3-1.3-0.9-1.6-1.8c-0.3-0.9-0.1-1.7,0.4-2.3c5-6.2,11.1-10.9,18.4-14.2C43.5,1.2,51.1-0.3,58.9,0
		c-4.3,2.5-8.5,6.3-12.5,11.3c-4,5-7.5,10.8-10.5,17.6L19,22.7z M41.1,30.7c3.6-8.4,8.1-15.2,13.4-20.4C59.8,5,64.8,2.4,69.5,2.4
		c1.4,0,2.7,0.2,3.8,0.7c5.1,1.9,8.3,6.8,9.6,14.9c1.3,8.1,0.5,17.1-2.5,27.2L41.1,30.7z M86.3,10c6.4,4.9,11.3,10.9,14.8,18
		c3.5,7.2,5.1,14.7,4.9,22.7c0,0.9-0.4,1.6-1.2,2.1c-0.8,0.5-1.6,0.6-2.5,0.2l-16.9-6.1c3-10.3,4-19.5,3.1-27.7
		C88.1,15.9,87.4,12.9,86.3,10z"/>
</g>
<g>
</g>
<g>
</g>
<g>
</g>
<g>
</g>
<g>
</g>
<g>
</g>
<g>
</g>
<g>
</g>
<g>
</g>
<g>
</g>
<g>
</g>
<g>
</g>
<g>
</g>
<g>
</g>
<g>
</g>
</svg>
