<?xml version="1.0" encoding="utf-8"?>
<!-- Generator: Adobe Illustrator 22.0.0, SVG Export Plug-In . SVG Version: 6.00 Build 0)  -->
<svg version="1.1" id="Layer_1" xmlns="http://www.w3.org/2000/svg" xmlns:xlink="http://www.w3.org/1999/xlink" x="0px" y="0px"
	 viewBox="0 0 102 101.9" style="enable-background:new 0 0 102 101.9;" xml:space="preserve">
<g>
	<path d="M28.9,3.3L51,38.2H0C0,31,1.6,24.2,4.8,17.9C8,11.5,12.4,6,18.1,1.5c1.6-1.3,3.5-1.8,5.7-1.4C26,0.5,27.7,1.6,28.9,3.3z
		 M98.8,19.1c0.9,0,1.7,0.3,2.3,0.9c0.6,0.6,0.9,1.4,0.9,2.3v6.4c0,0.9-0.3,1.7-0.9,2.3c-0.6,0.6-1.4,0.9-2.3,0.9h-9.6v12.8
		c0,10-4,18.7-12,26.1c3.5,0.8,6.3,2.6,8.6,5.5c2.3,2.9,3.4,6.1,3.4,9.9c0,4.4-1.6,8.1-4.7,11.3c-3.1,3.1-6.9,4.7-11.3,4.7
		c-4.4,0-8.1-1.6-11.3-4.7c-3.1-3.1-4.7-6.9-4.7-11.3c0-1.6,0.3-3.3,0.8-5c-4.4,1.2-8.9,1.8-13.5,1.8c-4.7,0-9.2-0.6-13.5-1.8
		c0.5,1.7,0.8,3.4,0.8,5c0,4.4-1.6,8.1-4.7,11.3c-3.1,3.1-6.9,4.7-11.3,4.7c-4.4,0-8.1-1.6-11.3-4.7C1.6,94.1,0,90.4,0,86
		c0-2.4,0.5-4.7,1.6-6.9c1.1-2.2,2.5-4,4.3-5.5c1.8-1.5,3.8-2.5,6.1-3C4,63.2,0,54.5,0,44.6h76.5V31.8c0-3.5,1.3-6.4,3.8-9
		c2.5-2.5,5.5-3.8,9-3.8H98.8z M11.5,90.5c1.3,1.3,2.8,1.9,4.5,1.9c1.7,0,3.2-0.6,4.5-1.9c1.3-1.3,1.9-2.8,1.9-4.5
		c0-1.7-0.6-3.2-1.9-4.5c-1.3-1.3-2.8-1.9-4.5-1.9c-1.7,0-3.2,0.6-4.5,1.9c-1.3,1.3-1.9,2.8-1.9,4.5C9.6,87.7,10.2,89.2,11.5,90.5z
		 M77.8,90.5c1.3-1.3,1.9-2.8,1.9-4.5c0-1.7-0.6-3.2-1.9-4.5c-1.3-1.3-2.8-1.9-4.5-1.9c-1.7,0-3.2,0.6-4.5,1.9
		c-1.3,1.3-1.9,2.8-1.9,4.5c0,1.7,0.6,3.2,1.9,4.5c1.3,1.3,2.8,1.9,4.5,1.9C75,92.4,76.5,91.7,77.8,90.5z"/>
</g>
<g>
</g>
<g>
</g>
<g>
</g>
<g>
</g>
<g>
</g>
<g>
</g>
<g>
</g>
<g>
</g>
<g>
</g>
<g>
</g>
<g>
</g>
<g>
</g>
<g>
</g>
<g>
</g>
<g>
</g>
</svg>
