<?xml version="1.0" encoding="utf-8"?>
<!-- Generator: Adobe Illustrator 22.0.0, SVG Export Plug-In . SVG Version: 6.00 Build 0)  -->
<svg version="1.1" id="Layer_1" xmlns="http://www.w3.org/2000/svg" xmlns:xlink="http://www.w3.org/1999/xlink" x="0px" y="0px"
	 viewBox="0 0 100 99.9" style="enable-background:new 0 0 100 99.9;" xml:space="preserve">
<g>
	<path d="M100,6.2v68.8c0,3.5-1.8,6.5-5.5,8.9c-3.6,2.4-8.1,3.6-13.3,3.6c-5.2,0-9.6-1.2-13.3-3.6c-3.6-2.4-5.5-5.4-5.5-8.9
		c0-3.5,1.8-6.5,5.5-8.9c3.6-2.4,8.1-3.6,13.3-3.6c2,0,4,0.3,6.3,0.8V27.1l-50,14.6v45.7c0,3.5-1.8,6.5-5.5,8.9
		c-3.6,2.4-8.1,3.6-13.3,3.6c-5.2,0-9.6-1.2-13.3-3.6C1.8,93.9,0,91,0,87.4c0-3.5,1.8-6.5,5.5-8.9c3.6-2.4,8.1-3.6,13.3-3.6
		c2,0,4,0.3,6.3,0.8V24.6c0-3,1.4-4.9,4.3-5.9L91.8,0.3c2.1-0.7,4-0.4,5.7,0.9C99.2,2.5,100,4.1,100,6.2z"/>
</g>
<g>
</g>
<g>
</g>
<g>
</g>
<g>
</g>
<g>
</g>
<g>
</g>
<g>
</g>
<g>
</g>
<g>
</g>
<g>
</g>
<g>
</g>
<g>
</g>
<g>
</g>
<g>
</g>
<g>
</g>
</svg>
