<?xml version="1.0" encoding="utf-8"?>
<!-- Generator: Adobe Illustrator 22.0.0, SVG Export Plug-In . SVG Version: 6.00 Build 0)  -->
<svg version="1.1" xmlns="http://www.w3.org/2000/svg" xmlns:xlink="http://www.w3.org/1999/xlink" x="0px" y="0px"
	 viewBox="0 0 318.3 321.7" style="enable-background:new 0 0 318.3 321.7;" xml:space="preserve">
<style type="text/css">
	.st0{fill:#E0E0E0;}
	.st1{fill:#27DEBF;}
	.st2{opacity:0.1;}
	.st3{fill:#FFFFFF;}
	.st4{fill:#37474F;}
	.st5{fill:#263238;}
	.st6{fill:#455A64;}
	.st7{fill:#FAFAFA;}
	.st8{opacity:0.4;}
	.st9{fill:#F57A1A;}
	.st10{opacity:0.4;fill:#FFFFFF;}
	.st11{fill:#F5F5F5;}
	.st12{fill:#DDC4AB;}
	.st13{opacity:0.6;}
	.st14{opacity:0.3;}
	.st15{fill:#EBEBEB;}
	.st16{fill:#9A4A4D;}
	.st17{opacity:0.2;fill:#9A4A4D;}
	.st18{opacity:0.15;}
</style>
<g id="Floor">
</g>
<g id="Shadows">
	<ellipse id="Shadow" class="st0" cx="256.1" cy="298.1" rx="40.9" ry="23.6"/>
</g>
<g id="Plants">
	<g id="Plants_3_">
		<g id="XMLID_2129_">
			<g id="XMLID_2124_">
				<g id="XMLID_2127_">
					<path id="XMLID_2131_" class="st1" d="M47,285.8c-0.6-6.9-6.9-20.9-14.9-29.3c-8-8.4-19.9-14-27.7-10.5
						c-7.3,3.2-5.6,13,4.1,18.7c9.7,5.7,24,12.7,29,23.6l9.6,13.1L47,285.8z"/>
					<path id="XMLID_2130_" class="st2" d="M47,285.8c-0.6-6.9-6.9-20.9-14.9-29.3c-8-8.4-19.9-14-27.7-10.5
						c-7.3,3.2-5.6,13,4.1,18.7c9.7,5.7,24,12.7,29,23.6l9.6,13.1L47,285.8z"/>
				</g>
				<g id="XMLID_2125_">
					<path id="XMLID_1153_" class="st3" d="M48.4,295.3c-0.2,0-0.4-0.1-0.5-0.4c-6.7-23.3-27.6-40.9-39.4-44.1
						c-0.3-0.1-0.4-0.4-0.4-0.6c0.1-0.3,0.3-0.4,0.6-0.4c12.1,3.3,33.3,21.2,40.1,44.8c0.1,0.3-0.1,0.6-0.3,0.6
						C48.5,295.3,48.4,295.3,48.4,295.3z"/>
				</g>
			</g>
			<g id="XMLID_2122_">
				<g id="XMLID_2123_">
					<path id="XMLID_2126_" class="st1" d="M46.2,310.7c-1.5-3.8-6.8-9.8-15-14.5c-9-5.1-20.1-6.9-22.9-11.3
						c-3.5-5.2,0.7-10.8,9.6-10.5c8.9,0.3,25.3,10.9,29.3,28.7L46.2,310.7z"/>
				</g>
				<g id="XMLID_2128_">
					<path id="XMLID_1151_" class="st3" d="M47.5,306.5c-0.2,0-0.4-0.1-0.5-0.3c-9-19.7-25.1-25.4-32.4-25.7c-0.3,0-0.5-0.2-0.5-0.5
						c0-0.3,0.2-0.5,0.5-0.5c8,0.3,24,6.3,33.3,26.3c0.1,0.3,0,0.6-0.3,0.7C47.7,306.5,47.6,306.5,47.5,306.5z"/>
				</g>
			</g>
		</g>
	</g>
	<g id="Plants_2_">
		<g id="XMLID_59_">
			<g id="XMLID_66_">
				<path id="XMLID_67_" class="st1" d="M278.6,276.8c-0.2-5.6,1.4-14.9,6.9-24.3c5.9-10,13.7-16.7,20.2-14.7
					c6.1,1.9,4.7,10.2-4.4,19.1c-6.4,6.3-12.9,14.3-15.9,23.5l-5.1,11.8L278.6,276.8z"/>
			</g>
			<g id="XMLID_64_">
				<path id="XMLID_65_" class="st1" d="M278.6,276.8c-0.2-5.6,1.4-14.9,6.9-24.3c5.9-10,13.7-16.7,20.2-14.7
					c6.1,1.9,4.7,10.2-4.4,19.1c-6.4,6.3-12.9,14.3-15.9,23.5l-5.1,11.8L278.6,276.8z"/>
			</g>
			<g id="XMLID_62_" class="st2">
				<path id="XMLID_63_" d="M278.6,276.8c-0.2-5.6,1.4-14.9,6.9-24.3c5.9-10,13.7-16.7,20.2-14.7c6.1,1.9,4.7,10.2-4.4,19.1
					c-6.4,6.3-12.9,14.3-15.9,23.5l-5.1,11.8L278.6,276.8z"/>
			</g>
			<g id="XMLID_60_">
				<path id="XMLID_61_" class="st3" d="M279.6,281c0.2,0,0.3-0.1,0.3-0.3c3.9-15.9,13.8-32.7,23.1-39c0.2-0.1,0.2-0.4,0.1-0.5
					c-0.1-0.2-0.4-0.2-0.5-0.1c-9.4,6.4-19.5,23.4-23.4,39.5c-0.1,0.2,0.1,0.4,0.3,0.5C279.5,281,279.6,281,279.6,281z"/>
			</g>
		</g>
		<g id="XMLID_55_">
			<path id="XMLID_58_" class="st1" d="M278.6,294.9c0,0,3.9,3.9,10.9,5.4c7,1.5,10.3-1.6,10.3-1.6s-2.4-6.8-6.3-8.8
				c0,0,6.7,1.8,11.9,5.7c0,0,4.3,0.3,6.4-6.1c0,0-2.3-4.1-10.7-6.7c0,0,5.3-1,12.6,1.4c0.5,0.3,3.4-8.1,4.4-11.9
				c1-3.9-0.6-3.9-3.6-4.9c-3-1-13.3-2.1-15.3-0.6c-2,1.6-3.3,7.2-3.3,7.2s-1.6-3.3-1-6.2c0,0-3-1.2-6.5-0.2c-3.5,1-3.4,2.7-3.5,5.2
				c-0.2,2.7,0,4.4,0.6,7.5c0,0-2.2-2.2-1.9-9.7c0,0-4.9,3.7-6.9,7C274.5,280.6,274.4,289.6,278.6,294.9z"/>
			<g id="XMLID_56_">
				<path id="XMLID_57_" class="st3" d="M278.5,295.3c0.1,0,0.3-0.1,0.4-0.2c6.4-11.4,28.3-23.9,35.9-24.9c0.2,0,0.4-0.2,0.3-0.4
					c0-0.2-0.2-0.4-0.4-0.3c-7.8,1-30,13.7-36.5,25.3c-0.1,0.2,0,0.4,0.2,0.5C278.4,295.3,278.5,295.3,278.5,295.3z"/>
			</g>
		</g>
	</g>
</g>
<g id="Device">
	<g id="Device_1_">
		<path id="XMLID_304_" class="st4" d="M52.5,318.4l-2.7-1.6c-2.2-1.3-4-4.4-4-6.9V71.4c0-2.6,1.8-5.7,4-6.9L159.7,1
			c2.2-1.3,5.8-1.3,8,0l2.7,1.6c2.2,1.3,4,4.4,4,6.9V248c0,2.6-1.8,5.7-4,6.9l-110,63.5C58.2,319.7,54.7,319.7,52.5,318.4z"/>
		<path id="XMLID_301_" class="st5" d="M61.8,76.1l-14.9-8.6c-0.7,1.3-1.2,2.7-1.2,3.9v238.5c0,2.6,1.8,5.7,4,6.9l2.7,1.6
			c2.2,1.3,5.8,1.3,8,0l1.4-0.8V76.1z"/>
		<path id="XMLID_298_" class="st6" d="M56.5,77.6v238.5c0,2.6,1.8,3.6,4,2.3l110-63.5c2.2-1.3,4-4.4,4-6.9V9.5c0-2.6-1.8-3.6-4-2.3
			l-110,63.5C58.2,71.9,56.5,75,56.5,77.6z"/>
		<path id="XMLID_294_" class="st7" d="M65.2,92.7l100-57.7c1.9-1.1,3.4-0.2,3.4,2v190.3c0,2.2-1.5,4.8-3.4,5.9l-100,57.7
			c-1.9,1.1-3.4,0.2-3.4-2l0-190.3C61.8,96.4,63.4,93.8,65.2,92.7z"/>
		<g id="XMLID_1334_" class="st8">
			<path id="XMLID_1336_" class="st9" d="M115.8,107.7c11.2-6.5,20.3-1.2,20.3,11.7c0,12.9-9.1,28.7-20.3,35.2
				c-11.2,6.5-20.3,1.2-20.3-11.7C95.5,129.9,104.6,114.1,115.8,107.7z"/>
			<path id="XMLID_1335_" class="st9" d="M155.8,176.9c0-21.3-14.9-30.7-33.4-20.1l-11.5,6.6c-18.4,10.6-33.4,36.5-33.4,57.8v5.7
				l78.2-45.1V176.9z"/>
		</g>
		<path id="XMLID_271_" class="st5" d="M115.5,45.1c1.5-0.9,2.7-0.2,2.7,1.5c0,1.7-1.2,3.8-2.7,4.6c-1.5,0.9-2.7,0.2-2.7-1.5
			C112.8,48,114,46,115.5,45.1z"/>
		<g id="XMLID_233_">
			<path id="XMLID_241_" class="st5" d="M107.7,58.5c5.4-3,15.2-8.8,20.5-12c0.9-0.5,1.7-0.2,1.7,0.8c0,1-0.7,2.2-1.7,2.8L107.7,62
				c-0.9,0.5-1.7,0.2-1.7-0.8C106,60.2,106.8,59,107.7,58.5z"/>
			<path id="XMLID_238_" class="st5" d="M102.5,61.5c0.8-0.5,1.5-0.1,1.5,0.9s-0.7,2.1-1.5,2.6c-0.8,0.5-1.5,0.1-1.5-0.9
				C101,63.1,101.7,62,102.5,61.5z"/>
		</g>
		<path id="XMLID_198_" class="st5" d="M115.5,268.1c3-1.7,5.4-0.3,5.4,3.1c0,3.4-2.4,7.6-5.4,9.3c-3,1.7-5.4,0.3-5.4-3.1
			C110.1,273.9,112.5,269.8,115.5,268.1z"/>
	</g>
</g>
<g id="Check_Mark">
	<g>
		<g id="XMLID_859_">
			<g id="XMLID_872_">
				<path id="XMLID_956_" class="st9" d="M206.7,201.3l-12.1-7c0,0,0,0,0,0l-0.1-0.1l0,0c-6-3.4-14.2-2.9-23.3,2.4
					c-8.5,4.9-16.3,13.1-22.2,22.6c-6.8,10.9-11,23.6-11,34.9c0,10.6,3.7,18,9.7,21.5v0l0,0l12.2,7c6,3.9,14.6,3.5,24.1-2
					c18.3-10.6,33.2-36.3,33.2-57.5C217.1,212.1,213.1,204.5,206.7,201.3z"/>
				<g id="XMLID_873_">
					<path id="XMLID_955_" class="st2" d="M159.7,282.5l-12-6.9l0,0v0c-6-3.5-9.7-10.9-9.7-21.5c0-11.3,4.3-24,11-34.9l12.8,7.4
						c-6.8,10.9-11,23.5-11,34.9C150.7,271.6,154.1,278.8,159.7,282.5z"/>
					<path id="XMLID_954_" class="st10" d="M206.4,201.1c-5.9-2.9-13.8-2.1-22.5,2.9c-8.5,4.9-16.3,13.1-22.2,22.6l-12.8-7.4
						c5.9-9.5,13.6-17.7,22.2-22.6c9.1-5.3,17.3-5.8,23.3-2.4l0,0l0.1,0.1c0,0,0,0,0,0L206.4,201.1z"/>
				</g>
			</g>
		</g>
		<g id="XMLID_1080_">
			<polygon id="XMLID_1085_" class="st3" points="201.2,214.6 196.6,212 178.6,254.4 181.7,256.2 			"/>
			<polygon id="XMLID_1084_" class="st3" points="175.1,244.9 170.5,242.3 165.6,252.7 170.2,255.4 			"/>
			<g id="XMLID_1082_">
				<polygon id="XMLID_1083_" class="st11" points="182.9,268.6 170.2,255.4 175.1,244.9 181.7,256.2 201.2,214.6 208.5,221.7 				
					"/>
			</g>
			<polygon id="XMLID_1081_" class="st0" points="165.6,252.7 170.2,255.4 182.9,268.6 178.3,266 			"/>
		</g>
	</g>
</g>
<g id="Character">
	<g id="XMLID_1152_">
		<path id="XMLID_1150_" class="st5" d="M260.4,97L260.4,97c10.8,0,19.6-8.8,19.6-19.6v-1.2c0-9.2-7.5-16.6-16.6-16.6h-6
			c-9.2,0-16.6,7.5-16.6,16.6v1.2C240.8,88.2,249.6,97,260.4,97z"/>
		<g id="XMLID_1235_">
			<path id="XMLID_1149_" class="st5" d="M240.2,291.3c-2.3,2.5-4.8,4.5-7.5,6.5c-0.4,0.3-0.8,0.6-1,1.1c-0.4,0.7-0.9,2.6,2.4,3.7
				c3.3,1.1,7.4,0.9,10.3-1c2.8-1.7,2.9-5.3,5.5-7.4c1.9-1.5,4.3-1.9,5.9-3.9c1.1-1.4,0.8-3.2,0.2-5.5c-0.6-2.5-0.9-4.4-1.7-4.2
				l0.1,1.1c-1,1.6-6.3,2.1-8.7,1C245.8,282.9,241.7,289.7,240.2,291.3z"/>
			<path id="XMLID_1148_" class="st12" d="M237.9,293.6C237.9,293.6,237.9,293.6,237.9,293.6c0.8-0.7,1.6-1.5,2.3-2.3
				c1-1,3-4.2,4.3-6.4c0.8-1.3,1.4-2.9,1.2-4.6c-0.2-1.7-0.7-6.1-0.7-6.1l8.4-0.6l1,8.2v0c0.2,1.9-1.3,3.5-4.1,5.9
				c-2.7,2.4-6.2,7.9-8.7,9.2c-2.5,1.4-4.2,1.3-5.3,0.6C235.3,296.9,235.2,296.3,237.9,293.6z"/>
			<path id="XMLID_1147_" class="st5" d="M272.1,292v-1.3c-0.5,1.5-2.8,7.9-6.3,11.1c-2.8,2.5-6.6,5.5-7.6,8.3
				c-1,2.9,5.3,3.9,7.9,3.5c3-0.5,6.9-2.3,9.1-4.9c1.5-1.8,2.5-4,3.5-5.5c1.1-1.4,3.5-3.1,4.1-4.7c0.3-0.9-0.1-2.9-0.5-4.6
				c-0.4-1.6-0.9-3.3-1.4-3.1c0,0.2,0,1,0,1c-0.6,0.7-2.4,1.4-4.4,1.5C275.3,293.3,272.1,293,272.1,292z"/>
			<path id="XMLID_1146_" class="st12" d="M263.3,304.1c0.9-0.8,1.7-1.5,2.5-2.2c2.4-2.2,4.3-6,5.4-8.6c0.6-1.5,0.9-3.1,0.9-4.6v-5
				h8.8v8.2v0v0v0.2l0,0c-0.4,1.8-4.5,6.7-6.8,9.9c-1.5,2.1-4.5,4.8-8,5.3C262.9,307.6,261.2,306.6,263.3,304.1z"/>
			<path id="XMLID_1145_" class="st1" d="M279.2,154.8c6.8,15-0.2,67.6-0.2,67.6c0.2,2.4,3,7.2,4,17.9c1.2,12.6-1.9,44.3-1.9,44.3
				s-4.1,2.7-8.9,0.4c0,0-8.4-47.7-10-60.3c-1.4-11-4-36.7-4-36.7l-6.9,36.9c0,0,2.2,6,2.7,10.7c0.7,7.4,0.2,41.5,0.2,41.5
				s-3,2.3-8.8,1.4c0,0-10-46.7-10.8-55.6c-0.5-5.3,5.6-70.4,5.6-70.4L279.2,154.8z"/>
			<path id="XMLID_1_" class="st13" d="M279.2,154.8c6.8,15-0.2,67.6-0.2,67.6c0.2,2.4,3,7.2,4,17.9c1.2,12.6-1.9,44.3-1.9,44.3
				s-4.1,2.7-8.9,0.4c0,0-8.4-47.7-10-60.3c-1.4-11-4-36.7-4-36.7l-6.9,36.9c0,0,2.2,6,2.7,10.7c0.7,7.4,0.2,41.5,0.2,41.5
				s-3,2.3-8.8,1.4c0,0-10-46.7-10.8-55.6c-0.5-5.3,5.6-70.4,5.6-70.4L279.2,154.8z"/>
			<path id="XMLID_1144_" class="st14" d="M258.1,188l-2.2-12.2c0,0-9.4-1.9-13.7-6c0,0,4.5,5.6,11.1,7.4l2.5,10.7l-3.9,33.4
				L258.1,188z"/>
		</g>
		<path id="XMLID_1143_" class="st12" d="M290.4,148.3c-0.1-1-1.9-11.5-3.2-17.3l-12.3,3.8l2.2,10.8l10.4,8.3
			C290.7,153.2,290.5,149.3,290.4,148.3z"/>
		<polygon id="XMLID_1142_" class="st12" points="230.8,126.2 225,136.9 234.1,144.6 242.4,131.5 		"/>
		<path id="XMLID_1141_" class="st1" d="M252.7,102.4c-5.8,0.1-12.1,2.2-14.3,6.7c-2.2,4.5-8.2,17-8.2,17s5.4,7.3,13.5,6.8
			L252.7,102.4z"/>
		<path id="XMLID_3_" class="st13" d="M252.7,102.4c-5.8,0.1-12.1,2.2-14.3,6.7c-2.2,4.5-8.2,17-8.2,17s5.4,7.3,13.5,6.8
			L252.7,102.4z"/>
		<path id="XMLID_1140_" class="st11" d="M264.6,102.6l4.8,0.2c5.2,1.3,7.1,4.8,9.3,9.5c1.7,3.5,1.7,7.6,0.4,11.3l-6.1,17.7
			c0,0,2.9,6.9,6.2,13.5c-15.4,8.6-34.5,4.1-39.1-2.2c-0.2-1.3,0.1-7.3-0.3-14.1c-0.4-7.3-1.4-15.4-0.3-19.9
			c2.1-8.3,6.1-16.1,14-16.1L264.6,102.6z"/>
		<path id="XMLID_1139_" class="st1" d="M269.4,102.8c5.2,0.7,12.9,1.8,15.6,14.2c2.7,12.6,3.2,15.6,3.2,15.6s-4.6,4.6-13.3,4.5
			C274.9,137.2,267.3,112.5,269.4,102.8z"/>
		<path id="XMLID_2_" class="st13" d="M269.4,102.8c5.2,0.7,12.9,1.8,15.6,14.2c2.7,12.6,3.2,15.6,3.2,15.6s-4.6,4.6-13.3,4.5
			C274.9,137.2,267.3,112.5,269.4,102.8z"/>
		<path id="XMLID_1138_" class="st15" d="M274.7,136.5c-1-3.3-2-7.1-2.9-11.1c0,0,0,8.8,1.5,15.2L274.7,136.5z"/>
		<g id="XMLID_1219_">
			<path id="XMLID_1136_" class="st12" d="M247.2,67.5c-2.1,1.2-4.6,6.4-4.4,17.4c0.2,9.3,3.2,11.6,4.7,12.2
				c1.5,0.7,4.4,0.3,7.2-0.2v5.6c0,0-3.9,4.5-3.7,7.1c0.2,2.6,5.6,3.2,9.3,0.7c3.7-2.5,6-6.3,6-6.3V90.5c0,0,1.9,2.6,5,0.5
				c3.1-2.1,3.2-7.2,1.4-9.1c-1.8-1.8-5.7-1.3-6.5,1.3c0,0-4.5,0.2-10.5-3.1C249.9,76.8,247.6,71.1,247.2,67.5z"/>
			<path id="XMLID_1121_" class="st5" d="M253.2,82.6c0,0.7,0.5,1.2,1.1,1.3c0.6,0,1.2-0.5,1.2-1.2c0-0.7-0.5-1.2-1.1-1.3
				C253.8,81.4,253.2,81.9,253.2,82.6z"/>
			<path id="XMLID_1120_" class="st16" d="M252.9,90.4l-2.7,0.9c0.2,0.8,1,1.2,1.8,1C252.7,92,253.1,91.2,252.9,90.4z"/>
			<path id="XMLID_1119_" class="st5" d="M243.6,79l2.4-1.6c-0.4-0.7-1.3-0.9-2-0.4C243.4,77.4,243.2,78.3,243.6,79z"/>
			<path id="XMLID_1116_" class="st5" d="M244.2,81.7c0,0.7,0.5,1.2,1.1,1.3c0.6,0,1.2-0.5,1.2-1.2c0-0.7-0.5-1.2-1.1-1.3
				C244.7,80.6,244.2,81.1,244.2,81.7z"/>
			<polygon id="XMLID_1115_" class="st17" points="249.7,81.1 249.5,88.1 245.8,86.9 			"/>
			<path id="XMLID_1112_" class="st17" d="M254.8,96.9c3-0.4,9.1-2.2,10.1-4.6c0,0-0.3,1.5-2.2,3.1c-1.8,1.6-7.9,3.3-7.9,3.3V96.9z"
				/>
		</g>
		<g id="XMLID_1155_">
			<polygon id="XMLID_1107_" class="st9" points="206,125.6 239.9,134.5 249.8,176.5 217.7,167.1 			"/>
			<path id="XMLID_1106_" class="st18" d="M220.8,153.4c-0.3,0.9-2.2,3.2-6.1,3.1l-0.5-1.7L220.8,153.4z"/>
			<path id="XMLID_1105_" class="st18" d="M228.3,154.7c0.1,1.1,2.5,3.2,6.3,4.5c4.4,1.5,11.2,0.7,11.2,0.7l-0.6-2.1L228.3,154.7z"
				/>
			<path id="XMLID_1104_" class="st18" d="M215.9,131.6c0,0-0.1-0.6-0.3-1.3c-0.2-0.7,1.8-0.7,4.4-0.1l5,1.3c2.6,0.7,4.8,1.8,5,2.5
				l0.3,1.3L215.9,131.6z"/>
			<g id="XMLID_1156_">
				<path id="XMLID_1103_" class="st4" d="M213.6,126.8c-0.1-0.4,0.7-0.6,1.8-0.3l2,0.5c0,0-0.6-2.8,3.8-1.8c4.4,1,5.3,4.1,5.3,4.1
					s0.9,0.3,2.1,0.6c1.2,0.3,2.2,1,2.4,1.4l0.2,0.8l-17.4-4.6C213.8,127.6,213.7,127.2,213.6,126.8z"/>
				<path id="XMLID_1099_" class="st4" d="M216,128.2c1.6,0.4,2.3,0.6,2.5,1.7c0.3,1.3,0.4,2.2,0.4,2.2l7.7,2c0,0-0.4-1.6-0.5-2.2
					c-0.1-0.6,0.1-1,1.4-0.7l0.1-0.5l-12.1-3.1L216,128.2z"/>
				<path id="XMLID_845_" class="st4" d="M215.7,131.8c0,0-0.1-0.6-0.3-1.3c-0.2-0.7,1.8-0.7,4.4-0.1l5,1.3c2.6,0.7,4.8,1.8,5,2.5
					l0.3,1.3L215.7,131.8z"/>
			</g>
		</g>
		<path id="XMLID_730_" class="st12" d="M287.5,153.8l-10.4-8.3c0,0-22.9,4.1-25.6,4.3c-2.7,0.2-5.7-1.7-6.7-4.3
			c-1-2.6-2.8-2.3-2.8-2.3s0.8,3.4,1.1,4.4c0.3,1.1-6.2,1.9-9.8,0.7c-3.6-1.2-8.8,0.5-5.6,5.4c3.2,4.9,9.5,5.4,13.8,5.4
			c1.2,0,3.3-0.1,5.4-0.4c1.4-0.2,2.8-0.3,4.2-0.4C259.9,157.8,283.4,155.1,287.5,153.8z"/>
		<path id="XMLID_728_" class="st12" d="M209.4,137.8c0,0,1.2,4.3,1.5,5.4c0.3,1,4.2,2.9,6.7,3.6c2.5,0.7,5.2,1.5,4,5
			c-1.1,3.2-5.2,3.9-7.3,3.9c-2.1-0.1-4.9-2.1-6.1-5.3c-1.4-4.1-0.7-8.5-1.2-10.9C206.6,137.1,208.2,136.4,209.4,137.8z"/>
		<path id="XMLID_1137_" class="st5" d="M277.6,118.6L277.6,118.6c-6.1,0-11.1-5-11.1-11.1V91.8l0,0c6.1,0,11.1,5,11.1,11.1V118.6z"
			/>
	</g>
</g>
</svg>
